SplineFontDB: 3.0
FontName: Crystal
FullName: Crystal
FamilyName: Crystal
Weight: Book
Copyright: Version 5.1          Design by Jerry Fitzpatrick.               
Version: 5.1
ItalicAngle: -28
UnderlinePosition: -205
UnderlineWidth: 50
Ascent: 800
Descent: 200
InvalidEm: 0
sfntRevision: 0x0005199a
LayerCount: 2
Layer: 0 1 "Back" 1
Layer: 1 1 "Fore" 0
XUID: [1021 883 -663975019 1381889]
StyleMap: 0x0001
FSType: 0
OS2Version: 4
OS2_WeightWidthSlopeOnly: 0
OS2_UseTypoMetrics: 1
CreationTime: 922375844
ModificationTime: 1559551805
PfmFamily: 17
TTFWeight: 400
TTFWidth: 5
LineGap: 175
VLineGap: 0
Panose: 2 11 5 9 0 0 0 0 0 0
OS2TypoAscent: 800
OS2TypoAOffset: 0
OS2TypoDescent: -200
OS2TypoDOffset: 0
OS2TypoLinegap: 0
OS2WinAscent: 800
OS2WinAOffset: 0
OS2WinDescent: 188
OS2WinDOffset: 0
HheadAscent: 840
HheadAOffset: 0
HheadDescent: -240
HheadDOffset: 0
OS2SubXSize: 700
OS2SubYSize: 650
OS2SubXOff: 0
OS2SubYOff: 143
OS2SupXSize: 700
OS2SupYSize: 650
OS2SupXOff: 0
OS2SupYOff: 453
OS2StrikeYSize: 50
OS2StrikeYPos: 259
OS2CapHeight: 675
OS2XHeight: 506
OS2Vendor: 'Alts'
OS2CodePages: 00000001.00000000
OS2UnicodeRanges: 00000000.00000000.00000000.00000000
MarkAttachClasses: 1
DEI: 91125
TtTable: prep
NPUSHB
 29
 17
 17
 16
 16
 15
 15
 14
 14
 13
 13
 12
 12
 11
 11
 10
 10
 9
 9
 8
 8
 3
 3
 2
 2
 1
 1
 0
 0
 1
SCANTYPE
PUSHW_1
 511
SCANCTRL
RCVT
ROUND[Grey]
WCVTP
RCVT
ROUND[Grey]
WCVTP
RCVT
ROUND[Grey]
WCVTP
RCVT
ROUND[Grey]
WCVTP
RCVT
ROUND[Grey]
WCVTP
RCVT
ROUND[Grey]
WCVTP
RCVT
ROUND[Grey]
WCVTP
RCVT
ROUND[Grey]
WCVTP
RCVT
ROUND[Grey]
WCVTP
RCVT
ROUND[Grey]
WCVTP
RCVT
ROUND[Grey]
WCVTP
RCVT
ROUND[Grey]
WCVTP
RCVT
ROUND[Grey]
WCVTP
RCVT
ROUND[Grey]
WCVTP
PUSHB_4
 5
 4
 70
 0
CALL
PUSHB_4
 7
 6
 70
 0
CALL
PUSHB_2
 4
 4
RCVT
ROUND[Grey]
WCVTP
PUSHB_2
 6
 6
RCVT
ROUND[Grey]
WCVTP
EndTTInstrs
TtTable: fpgm
NPUSHB
 1
 0
FDEF
SROUND
RCVT
DUP
PUSHB_1
 3
CINDEX
RCVT
SWAP
SUB
ROUND[Grey]
RTG
SWAP
ROUND[Grey]
ADD
WCVTP
ENDF
EndTTInstrs
ShortTable: cvt  26
  -184
  -7
  512
  598

StartChar: .notdef
Encoding: 65536 -1 0
Width: 510
Flags: W
LayerCount: 2
Fore
SplineSet
64 0 m 1,0,-1
 64 800 l 1,1,-1
 446 800 l 1,2,-1
 446 0 l 1,3,-1
 64 0 l 1,0,-1
128 64 m 1,4,-1
 383 64 l 1,5,-1
 383 736 l 1,6,-1
 128 736 l 1,7,-1
 128 64 l 1,4,-1
EndSplineSet
EndChar

StartChar: exclam
Encoding: 33 33 4
Width: 510
GlyphClass: 2
Flags: W
LayerCount: 2
Fore
SplineSet
367 169 m 1,0,-1
 292 169 l 1,1,-1
 292 675 l 1,2,-1
 367 675 l 1,3,-1
 367 169 l 1,0,-1
367 0 m 1,4,-1
 292 0 l 1,5,-1
 292 75 l 1,6,-1
 367 75 l 1,7,-1
 367 0 l 1,4,-1
EndSplineSet
EndChar

StartChar: quotedbl
Encoding: 34 34 5
Width: 510
GlyphClass: 2
Flags: W
LayerCount: 2
Fore
SplineSet
387 550 m 1,0,-1
 312 550 l 1,1,-1
 312 800 l 1,2,-1
 387 800 l 1,3,-1
 387 550 l 1,0,-1
197 550 m 1,4,-1
 122 550 l 1,5,-1
 122 800 l 1,6,-1
 197 800 l 1,7,-1
 197 550 l 1,4,-1
EndSplineSet
EndChar

StartChar: numbersign
Encoding: 35 35 6
Width: 510
GlyphClass: 2
Flags: W
LayerCount: 2
Fore
SplineSet
460 169 m 1,0,-1
 385 169 l 1,1,-1
 385 0 l 1,2,-1
 310 0 l 1,3,-1
 310 169 l 1,4,-1
 200 169 l 1,5,-1
 200 0 l 1,6,-1
 125 0 l 1,7,-1
 125 169 l 1,8,-1
 50 169 l 1,9,-1
 50 244 l 1,10,-1
 125 244 l 1,11,-1
 125 431 l 1,12,-1
 50 431 l 1,13,-1
 50 506 l 1,14,-1
 125 506 l 1,15,-1
 125 675 l 1,16,-1
 200 675 l 1,17,-1
 200 506 l 1,18,-1
 310 506 l 1,19,-1
 310 675 l 1,20,-1
 385 675 l 1,21,-1
 385 506 l 1,22,-1
 460 506 l 1,23,-1
 460 431 l 1,24,-1
 385 431 l 1,25,-1
 385 244 l 1,26,-1
 460 244 l 1,27,-1
 460 169 l 1,0,-1
310 244 m 1,28,-1
 310 431 l 1,29,-1
 200 431 l 1,30,-1
 200 244 l 1,31,-1
 310 244 l 1,28,-1
EndSplineSet
EndChar

StartChar: dollar
Encoding: 36 36 7
Width: 510
GlyphClass: 2
Flags: W
LayerCount: 2
Fore
SplineSet
435 225 m 0,0,1
 435 162 435 162 385 116 c 0,2,3
 340 75 340 75 292 75 c 1,4,-1
 292 0 l 1,5,-1
 217 0 l 1,6,-1
 217 75 l 1,7,8
 182 94 182 94 155 113 c 0,9,10
 91 156 91 156 75 186 c 1,11,-1
 125 234 l 1,12,13
 145 202 145 202 217 158 c 1,14,-1
 217 325 l 1,15,16
 139 350 139 350 119 364 c 0,17,18
 75 395 75 395 75 463 c 0,19,20
 75 533 75 533 116 568 c 0,21,22
 148 595 148 595 217 608 c 1,23,-1
 217 675 l 1,24,-1
 292 675 l 1,25,-1
 292 608 l 1,26,27
 322 593 322 593 347 578 c 0,28,29
 406 542 406 542 427 515 c 1,30,-1
 378 467 l 1,31,32
 357 491 357 491 292 528 c 1,33,-1
 292 384 l 1,34,35
 354 370 354 370 394.5 327 c 128,-1,36
 435 284 435 284 435 225 c 0,0,1
217 395 m 1,37,-1
 217 530 l 1,38,39
 150 528 150 528 150 463 c 256,40,41
 150 398 150 398 217 395 c 1,37,-1
360 227 m 256,42,43
 360 292 360 292 292 302 c 1,44,-1
 292 155 l 1,45,46
 360 162 360 162 360 227 c 256,42,43
EndSplineSet
EndChar

StartChar: percent
Encoding: 37 37 8
Width: 510
GlyphClass: 2
Flags: W
LayerCount: 2
Fore
SplineSet
255 569 m 0,0,1
 255 531 255 531 224 500 c 128,-1,2
 193 469 193 469 155 469 c 0,3,4
 118 469 118 469 86.5 500 c 128,-1,5
 55 531 55 531 55 569 c 0,6,7
 55 606 55 606 86.5 637.5 c 128,-1,8
 118 669 118 669 155 669 c 0,9,10
 193 669 193 669 224 637.5 c 128,-1,11
 255 606 255 606 255 569 c 0,0,1
460 675 m 1,12,-1
 125 0 l 1,13,-1
 50 0 l 1,14,-1
 385 675 l 1,15,-1
 460 675 l 1,12,-1
457 96 m 0,16,17
 457 58 457 58 425.5 27 c 128,-1,18
 394 -4 394 -4 357 -4 c 0,19,20
 319 -4 319 -4 288 27 c 128,-1,21
 257 58 257 58 257 96 c 0,22,23
 257 133 257 133 288 164.5 c 128,-1,24
 319 196 319 196 357 196 c 0,25,26
 394 196 394 196 425.5 164.5 c 128,-1,27
 457 133 457 133 457 96 c 0,16,17
205 569 m 256,28,29
 205 584 205 584 187.5 601.5 c 128,-1,30
 170 619 170 619 155 619 c 256,31,32
 140 619 140 619 122.5 601.5 c 128,-1,33
 105 584 105 584 105 569 c 256,34,35
 105 554 105 554 122.5 536.5 c 128,-1,36
 140 519 140 519 155 519 c 256,37,38
 170 519 170 519 187.5 536.5 c 128,-1,39
 205 554 205 554 205 569 c 256,28,29
407 96 m 256,40,41
 407 111 407 111 389.5 128.5 c 128,-1,42
 372 146 372 146 357 146 c 256,43,44
 342 146 342 146 324.5 128.5 c 128,-1,45
 307 111 307 111 307 96 c 256,46,47
 307 81 307 81 324.5 63.5 c 128,-1,48
 342 46 342 46 357 46 c 256,49,50
 372 46 372 46 389.5 63.5 c 128,-1,51
 407 81 407 81 407 96 c 256,40,41
EndSplineSet
EndChar

StartChar: ampersand
Encoding: 38 38 9
Width: 510
GlyphClass: 2
Flags: W
LayerCount: 2
Fore
SplineSet
483 219 m 1,0,-1
 421 142 l 1,1,-1
 475 39 l 1,2,-1
 420 0 l 1,3,-1
 378 81 l 1,4,5
 317 0 317 0 255 0 c 0,6,7
 169 0 169 0 122 43.5 c 128,-1,8
 75 87 75 87 75 169 c 0,9,10
 75 222 75 222 114 305.5 c 128,-1,11
 153 389 153 389 191 422 c 1,12,13
 146 469 146 469 143 473 c 0,14,15
 125 501 125 501 125 550 c 0,16,17
 125 606 125 606 161.5 640.5 c 128,-1,18
 198 675 198 675 255 675 c 0,19,20
 311 675 311 675 345.5 640.5 c 128,-1,21
 380 606 380 606 380 550 c 0,22,23
 380 450 380 450 299 409 c 1,24,-1
 396 207 l 1,25,-1
 429 255 l 1,26,-1
 483 219 l 1,0,-1
315 550 m 0,27,28
 315 606 315 606 254 606 c 0,29,30
 195 606 195 606 195 550 c 0,31,32
 195 518 195 518 210.5 496 c 128,-1,33
 226 474 226 474 254 474 c 0,34,35
 283 474 283 474 299 496 c 128,-1,36
 315 518 315 518 315 550 c 0,27,28
348 147 m 1,37,-1
 229 368 l 1,38,39
 195 341 195 341 171 273 c 0,40,41
 150 214 150 214 150 169 c 0,42,43
 150 125 150 125 178 100 c 128,-1,44
 206 75 206 75 255 75 c 0,45,46
 272 75 272 75 306 103 c 0,47,48
 336 127 336 127 348 147 c 1,37,-1
EndSplineSet
EndChar

StartChar: quotesingle
Encoding: 39 39 10
Width: 510
GlyphClass: 2
Flags: W
LayerCount: 2
Fore
SplineSet
292 550 m 1,0,-1
 217 550 l 1,1,-1
 217 800 l 1,2,-1
 292 800 l 1,3,-1
 292 550 l 1,0,-1
EndSplineSet
EndChar

StartChar: parenleft
Encoding: 40 40 11
Width: 510
GlyphClass: 2
Flags: W
LayerCount: 2
Fore
SplineSet
407 0 m 1,0,-1
 357 -40 l 1,1,2
 217 92 217 92 217 338 c 0,3,4
 217 575 217 575 357 715 c 1,5,-1
 407 675 l 1,6,7
 284 537 284 537 284 335 c 0,8,9
 284 138 284 138 407 0 c 1,0,-1
EndSplineSet
EndChar

StartChar: parenright
Encoding: 41 41 12
Width: 510
GlyphClass: 2
Flags: W
LayerCount: 2
Fore
SplineSet
293 338 m 0,0,1
 293 92 293 92 153 -40 c 1,2,-1
 103 0 l 1,3,4
 226 138 226 138 226 335 c 0,5,6
 226 537 226 537 103 675 c 1,7,-1
 153 715 l 1,8,9
 293 575 293 575 293 338 c 0,0,1
EndSplineSet
EndChar

StartChar: asterisk
Encoding: 42 42 13
Width: 510
GlyphClass: 2
Flags: W
LayerCount: 2
Fore
SplineSet
447 398 m 1,0,-1
 336 333 l 1,1,-1
 446 270 l 1,2,-1
 405 199 l 1,3,-1
 297 261 l 1,4,-1
 297 138 l 1,5,-1
 214 138 l 1,6,-1
 214 263 l 1,7,-1
 104 200 l 1,8,-1
 63 271 l 1,9,-1
 171 334 l 1,10,-1
 63 397 l 1,11,-1
 104 468 l 1,12,-1
 214 404 l 1,13,-1
 214 534 l 1,14,-1
 297 534 l 1,15,-1
 297 404 l 1,16,-1
 406 469 l 1,17,-1
 447 398 l 1,0,-1
EndSplineSet
EndChar

StartChar: plus
Encoding: 43 43 14
Width: 510
GlyphClass: 2
Flags: W
LayerCount: 2
Fore
SplineSet
435 300 m 1,0,-1
 292 300 l 1,1,-1
 292 146 l 1,2,-1
 217 146 l 1,3,-1
 217 300 l 1,4,-1
 75 300 l 1,5,-1
 75 375 l 1,6,-1
 217 375 l 1,7,-1
 217 527 l 1,8,-1
 292 527 l 1,9,-1
 292 375 l 1,10,-1
 435 375 l 1,11,-1
 435 300 l 1,0,-1
EndSplineSet
EndChar

StartChar: comma
Encoding: 44 44 15
Width: 510
GlyphClass: 2
Flags: W
LayerCount: 2
Fore
SplineSet
217 85 m 2,0,1
 217 25 217 25 177 -19 c 0,2,3
 141 -60 141 -60 100 -60 c 1,4,-1
 75 0 l 1,5,6
 94 0 94 0 110.5 27.5 c 128,-1,7
 127 55 127 55 127 85 c 2,8,-1
 127 169 l 1,9,-1
 217 169 l 1,10,-1
 217 85 l 2,0,1
EndSplineSet
EndChar

StartChar: hyphen
Encoding: 45 45 16
AltUni2: 002010.ffffffff.0
Width: 510
GlyphClass: 2
Flags: W
LayerCount: 2
Fore
SplineSet
435 300 m 1,0,-1
 75 300 l 1,1,-1
 75 375 l 1,2,-1
 435 375 l 1,3,-1
 435 300 l 1,0,-1
EndSplineSet
EndChar

StartChar: period
Encoding: 46 46 17
Width: 294
GlyphClass: 2
Flags: W
LayerCount: 2
Fore
SplineSet
197 0 m 1,0,-1
 97 0 l 1,1,-1
 97 100 l 1,2,-1
 197 100 l 1,3,-1
 197 0 l 1,0,-1
EndSplineSet
EndChar

StartChar: slash
Encoding: 47 47 18
Width: 510
GlyphClass: 2
Flags: W
LayerCount: 2
Fore
SplineSet
510 750 m 1,0,-1
 90 -75 l 1,1,-1
 0 -75 l 1,2,-1
 420 750 l 1,3,-1
 510 750 l 1,0,-1
EndSplineSet
EndChar

StartChar: zero
Encoding: 48 48 19
Width: 510
GlyphClass: 2
Flags: W
LayerCount: 2
Fore
SplineSet
435 338 m 256,0,1
 435 189 435 189 413 120 c 0,2,3
 373 0 373 0 255 0 c 256,4,5
 137 0 137 0 98 120 c 0,6,7
 75 189 75 189 75 338 c 256,8,9
 75 487 75 487 98 555 c 0,10,11
 137 675 137 675 255 675 c 256,12,13
 373 675 373 675 413 555 c 0,14,15
 435 487 435 487 435 338 c 256,0,1
318 578 m 1,16,-1
 255 600 l 1,17,18
 189 600 189 600 165 507 c 0,19,20
 150 449 150 449 150 338 c 0,21,22
 150 245 150 245 165 169 c 1,23,-1
 193 102 l 1,24,-1
 255 75 l 1,25,26
 321 75 321 75 345 169 c 0,27,28
 360 227 360 227 360 338 c 0,29,30
 360 431 360 431 345 506 c 1,31,-1
 318 578 l 1,16,-1
EndSplineSet
EndChar

StartChar: one
Encoding: 49 49 20
Width: 510
GlyphClass: 2
Flags: W
LayerCount: 2
Fore
SplineSet
360 0 m 1,0,-1
 285 0 l 1,1,-1
 285 590 l 1,2,-1
 150 520 l 1,3,-1
 150 600 l 1,4,-1
 285 675 l 1,5,-1
 360 675 l 1,6,-1
 360 0 l 1,0,-1
EndSplineSet
EndChar

StartChar: two
Encoding: 50 50 21
Width: 510
GlyphClass: 2
Flags: W
LayerCount: 2
Fore
SplineSet
435 0 m 1,0,-1
 75 0 l 1,1,-1
 75 75 l 1,2,-1
 255 313 l 1,3,4
 360 460 360 460 360 506 c 0,5,6
 360 553 360 553 345 572 c 0,7,8
 322 600 322 600 255 600 c 0,9,10
 162 600 162 600 155 506 c 1,11,-1
 75 506 l 1,12,13
 84 555 84 555 105 591 c 0,14,15
 155 675 155 675 255 675 c 0,16,17
 435 675 435 675 435 506 c 0,18,19
 435 454 435 454 399 392 c 0,20,21
 383 365 383 365 330 295 c 2,22,-1
 165 75 l 1,23,-1
 435 75 l 1,24,-1
 435 0 l 1,0,-1
EndSplineSet
EndChar

StartChar: three
Encoding: 51 51 22
Width: 510
GlyphClass: 2
Flags: W
LayerCount: 2
Fore
SplineSet
435 206 m 0,0,1
 435 103 435 103 375 47 c 0,2,3
 325 0 325 0 255 0 c 2,4,-1
 75 0 l 1,5,-1
 75 75 l 1,6,-1
 255 75 l 2,7,8
 293 75 293 75 323 103 c 0,9,10
 360 139 360 139 360 206 c 0,11,12
 360 338 360 338 255 338 c 2,13,-1
 170 338 l 1,14,-1
 170 413 l 1,15,-1
 350 595 l 1,16,-1
 75 595 l 1,17,-1
 75 675 l 1,18,-1
 435 675 l 1,19,-1
 435 595 l 1,20,-1
 255 413 l 1,21,22
 336 413 336 413 383 366 c 0,23,24
 435 312 435 312 435 206 c 0,0,1
EndSplineSet
EndChar

StartChar: four
Encoding: 52 52 23
Width: 510
GlyphClass: 2
Flags: W
LayerCount: 2
Fore
SplineSet
450 169 m 1,0,-1
 375 169 l 1,1,-1
 375 0 l 1,2,-1
 300 0 l 1,3,-1
 300 169 l 1,4,-1
 50 169 l 1,5,-1
 300 675 l 1,6,-1
 375 675 l 1,7,-1
 375 244 l 1,8,-1
 450 244 l 1,9,-1
 450 169 l 1,0,-1
300 244 m 1,10,-1
 300 506 l 1,11,-1
 180 244 l 1,12,-1
 300 244 l 1,10,-1
EndSplineSet
EndChar

StartChar: five
Encoding: 53 53 24
Width: 510
GlyphClass: 2
Flags: W
LayerCount: 2
Fore
SplineSet
435 190 m 0,0,1
 435 87 435 87 377 39 c 0,2,3
 330 0 330 0 255 0 c 2,4,-1
 75 0 l 1,5,-1
 75 75 l 1,6,-1
 255 75 l 2,7,8
 289 75 289 75 315 91 c 0,9,10
 360 120 360 120 360 190 c 0,11,12
 360 257 360 257 319 302 c 0,13,14
 285 338 285 338 255 338 c 2,15,-1
 75 338 l 1,16,-1
 75 675 l 1,17,-1
 435 675 l 1,18,-1
 435 600 l 1,19,-1
 150 600 l 1,20,-1
 150 413 l 1,21,-1
 255 413 l 2,22,23
 328 413 328 413 378 362 c 0,24,25
 435 301 435 301 435 190 c 0,0,1
EndSplineSet
EndChar

StartChar: six
Encoding: 54 54 25
Width: 510
GlyphClass: 2
Flags: W
LayerCount: 2
Fore
SplineSet
435 206 m 0,0,1
 435 118 435 118 413 76 c 0,2,3
 372 0 372 0 255 0 c 0,4,5
 136 0 136 0 98 109 c 0,6,7
 75 174 75 174 75 338 c 0,8,9
 75 487 75 487 98 555 c 0,10,11
 137 675 137 675 255 675 c 0,12,13
 316 675 316 675 362 652 c 0,14,15
 392 637 392 637 432 601 c 1,16,-1
 382 550 l 1,17,18
 322 600 322 600 255 600 c 0,19,20
 189 600 189 600 165 523 c 0,21,22
 150 473 150 473 150 370 c 1,23,24
 150 407 150 407 255 413 c 1,25,26
 435 413 435 413 435 206 c 0,0,1
360 206 m 0,27,28
 360 283 360 283 337.5 310.5 c 128,-1,29
 315 338 315 338 255 338 c 0,30,31
 201 338 201 338 183 319 c 0,32,33
 160 293 160 293 160 206 c 0,34,35
 160 75 160 75 255 75 c 0,36,37
 360 75 360 75 360 206 c 0,27,28
EndSplineSet
EndChar

StartChar: seven
Encoding: 55 55 26
Width: 510
GlyphClass: 2
Flags: W
LayerCount: 2
Fore
SplineSet
435 675 m 1,0,-1
 255 0 l 1,1,-1
 175 0 l 1,2,-1
 335 595 l 1,3,-1
 75 595 l 1,4,-1
 75 675 l 1,5,-1
 435 675 l 1,0,-1
EndSplineSet
EndChar

StartChar: eight
Encoding: 56 56 27
Width: 510
GlyphClass: 2
Flags: W
LayerCount: 2
Fore
SplineSet
413 472 m 0,0,1
 413 475 413 475 413 518 c 0,2,3
 413 585 413 585 368 630 c 128,-1,4
 323 675 323 675 255 675 c 0,5,6
 188 675 188 675 143 630.5 c 128,-1,7
 98 586 98 586 98 518 c 0,8,9
 98 475 98 475 98 472 c 0,10,11
 100 407 100 407 138 366 c 1,12,13
 72 317 72 317 75 246 c 0,14,15
 75 213 75 213 75 180 c 0,16,17
 75 105 75 105 127.5 52.5 c 128,-1,18
 180 0 180 0 255 0 c 256,19,20
 330 0 330 0 382.5 52.5 c 128,-1,21
 435 105 435 105 435.5 173.5 c 128,-1,22
 436 242 436 242 436 244 c 0,23,24
 435 317 435 317 372 366 c 1,25,26
 414 407 414 407 413 472 c 0,0,1
338 472 m 0,27,28
 336 440 336 440 316 419 c 0,29,30
 293 396 293 396 255 396 c 0,31,32
 218 396 218 396 196 418 c 0,33,34
 175 439 175 439 173 472 c 0,35,36
 173 475 173 475 173 518 c 0,37,38
 173 556 173 556 195.5 578 c 128,-1,39
 218 600 218 600 255 600 c 0,40,41
 293 600 293 600 315.5 577.5 c 128,-1,42
 338 555 338 555 338 518 c 0,43,44
 338 475 338 475 338 472 c 0,27,28
360 230 m 1,45,46
 360 228 360 228 360 180 c 0,47,48
 360 135 360 135 330 105 c 128,-1,49
 300 75 300 75 255 75 c 256,50,51
 210 75 210 75 180 105 c 128,-1,52
 150 135 150 135 150 180 c 0,53,54
 150 227 150 227 150 230 c 0,55,56
 152 273 152 273 180 301 c 0,57,58
 210 331 210 331 255 331 c 256,59,60
 300 331 300 331 330 301 c 0,61,62
 359 272 359 272 360 230 c 1,63,64
 360 228 360 228 360 230 c 1,45,46
EndSplineSet
EndChar

StartChar: nine
Encoding: 57 57 28
Width: 510
GlyphClass: 2
Flags: W
LayerCount: 2
Fore
SplineSet
439 337 m 0,0,1
 439 188 439 188 416 120 c 0,2,3
 377 0 377 0 259 0 c 0,4,5
 186 0 186 0 145 23 c 0,6,7
 128 32 128 32 82 74 c 1,8,-1
 132 124 l 1,9,10
 222 75 222 75 259 75 c 0,11,12
 325 75 325 75 349 153 c 0,13,14
 364 202 364 202 364 305 c 1,15,16
 364 262 364 262 259 262 c 0,17,18
 153 262 153 262 112 312 c 0,19,20
 75 357 75 357 75 469 c 0,21,22
 75 555 75 555 99 599 c 0,23,24
 141 675 141 675 259 675 c 0,25,26
 378 675 378 675 416 566 c 0,27,28
 439 502 439 502 439 337 c 0,0,1
354 469 m 0,29,30
 354 600 354 600 259 600 c 0,31,32
 154 600 154 600 154 469 c 0,33,34
 154 392 154 392 176 364.5 c 128,-1,35
 198 337 198 337 259 337 c 0,36,37
 313 337 313 337 331 357 c 0,38,39
 354 382 354 382 354 469 c 0,29,30
EndSplineSet
EndChar

StartChar: colon
Encoding: 58 58 29
Width: 510
GlyphClass: 2
Flags: W
LayerCount: 2
Fore
SplineSet
305 406 m 1,0,-1
 205 406 l 1,1,-1
 205 506 l 1,2,-1
 305 506 l 1,3,-1
 305 406 l 1,0,-1
305 169 m 1,4,-1
 205 169 l 1,5,-1
 205 269 l 1,6,-1
 305 269 l 1,7,-1
 305 169 l 1,4,-1
EndSplineSet
EndChar

StartChar: semicolon
Encoding: 59 59 30
Width: 510
GlyphClass: 2
Flags: W
LayerCount: 2
Fore
SplineSet
217 238 m 1,0,-1
 117 238 l 1,1,-1
 117 338 l 1,2,-1
 217 338 l 1,3,-1
 217 238 l 1,0,-1
217 85 m 2,4,5
 217 22 217 22 174 -49 c 128,-1,6
 131 -120 131 -120 93 -120 c 1,7,-1
 68 -60 l 1,8,9
 86 -60 86 -60 102 -3 c 0,10,11
 117 49 117 49 117 85 c 2,12,-1
 117 169 l 1,13,-1
 217 169 l 1,14,-1
 217 85 l 2,4,5
EndSplineSet
EndChar

StartChar: less
Encoding: 60 60 31
Width: 510
GlyphClass: 2
Flags: W
LayerCount: 2
Fore
SplineSet
435 -75 m 1,0,-1
 75 338 l 1,1,-1
 435 750 l 1,2,-1
 435 650 l 1,3,-1
 165 338 l 1,4,-1
 435 25 l 1,5,-1
 435 -75 l 1,0,-1
EndSplineSet
EndChar

StartChar: equal
Encoding: 61 61 32
Width: 510
GlyphClass: 2
Flags: W
LayerCount: 2
Fore
SplineSet
435 400 m 1,0,-1
 75 400 l 1,1,-1
 75 475 l 1,2,-1
 435 475 l 1,3,-1
 435 400 l 1,0,-1
435 200 m 1,4,-1
 75 200 l 1,5,-1
 75 275 l 1,6,-1
 435 275 l 1,7,-1
 435 200 l 1,4,-1
EndSplineSet
EndChar

StartChar: greater
Encoding: 62 62 33
Width: 510
GlyphClass: 2
Flags: W
LayerCount: 2
Fore
SplineSet
510 338 m 1,0,-1
 150 -75 l 1,1,-1
 150 25 l 1,2,-1
 420 338 l 1,3,-1
 150 650 l 1,4,-1
 150 750 l 1,5,-1
 510 338 l 1,0,-1
EndSplineSet
EndChar

StartChar: question
Encoding: 63 63 34
Width: 510
GlyphClass: 2
Flags: W
LayerCount: 2
Fore
SplineSet
435 506 m 0,0,1
 435 440 435 440 407 401 c 0,2,3
 397 386 397 386 335 331 c 0,4,5
 290 290 290 290 290 240 c 0,6,7
 290 232 290 232 291 208.5 c 128,-1,8
 292 185 292 185 292 169 c 1,9,-1
 217 169 l 1,10,11
 217 262 217 262 219 277 c 0,12,13
 229 331 229 331 274 374 c 0,14,15
 303 401 303 401 331 428 c 0,16,17
 360 461 360 461 360 506 c 0,18,19
 360 600 360 600 255 600 c 0,20,21
 163 600 163 600 126 464 c 1,22,-1
 61 490 l 1,23,24
 102 675 102 675 255 675 c 0,25,26
 334 675 334 675 384.5 628 c 128,-1,27
 435 581 435 581 435 506 c 0,0,1
292 0 m 1,28,-1
 217 0 l 1,29,-1
 217 100 l 1,30,-1
 292 100 l 1,31,-1
 292 0 l 1,28,-1
EndSplineSet
EndChar

StartChar: at
Encoding: 64 64 35
Width: 510
GlyphClass: 2
Flags: W
LayerCount: 2
Fore
SplineSet
446 383 m 0,0,1
 446 318 446 318 412 265 c 0,2,3
 390 232 390 232 374 220 c 0,4,5
 355 205 355 205 324 205 c 0,6,7
 295 205 295 205 286 228 c 1,8,9
 263 205 263 205 233 205 c 0,10,11
 199 205 199 205 175 234 c 128,-1,12
 151 263 151 263 151 313 c 0,13,14
 151 359 151 359 169 401 c 0,15,16
 183 433 183 433 211.5 457 c 128,-1,17
 240 481 240 481 268 481 c 0,18,19
 300 481 300 481 320 446 c 1,20,-1
 355 446 l 1,21,-1
 340 284 l 2,22,23
 340 279 340 279 339 257 c 1,24,25
 346 260 346 260 364 278 c 1,26,27
 378 300 378 300 387 322 c 0,28,29
 400 353 400 353 400 386 c 0,30,31
 400 425 400 425 383 458 c 0,32,33
 348 522 348 522 256 522 c 0,34,35
 172 522 172 522 129 430 c 0,36,37
 106 382 106 382 106 325 c 0,38,39
 106 270 106 270 127 231 c 0,40,41
 171 147 171 147 256 147 c 0,42,43
 319 147 319 147 350 177 c 1,44,-1
 410 177 l 1,45,46
 362 95 362 95 254 95 c 0,47,48
 194 95 194 95 154.5 120.5 c 128,-1,49
 115 146 115 146 86 203 c 0,50,51
 59 255 59 255 59 325 c 0,52,53
 59 398 59 398 89 459 c 0,54,55
 146 577 146 577 257 577 c 0,56,57
 340 577 340 577 393 520 c 128,-1,58
 446 463 446 463 446 383 c 0,0,1
302 374 m 0,59,60
 302 426 302 426 269 426 c 0,61,62
 248 426 248 426 234 401 c 0,63,64
 213 363 213 363 213 315 c 0,65,66
 213 259 213 259 244 259 c 0,67,68
 273 259 273 259 291 312 c 0,69,70
 302 343 302 343 302 374 c 0,59,60
EndSplineSet
EndChar

StartChar: A
Encoding: 65 65 36
Width: 510
GlyphClass: 2
Flags: W
LayerCount: 2
Fore
SplineSet
510 0 m 1,0,-1
 425 0 l 1,1,-1
 355 225 l 1,2,-1
 155 225 l 1,3,-1
 85 0 l 1,4,-1
 0 0 l 1,5,-1
 217 675 l 1,6,-1
 292 675 l 1,7,-1
 510 0 l 1,0,-1
330 300 m 1,8,-1
 255 580 l 1,9,-1
 180 300 l 1,10,-1
 330 300 l 1,8,-1
EndSplineSet
EndChar

StartChar: B
Encoding: 66 66 37
Width: 510
GlyphClass: 2
Flags: W
LayerCount: 2
Fore
SplineSet
435 207 m 0,0,1
 435 93 435 93 392 46.5 c 128,-1,2
 349 0 349 0 255 0 c 2,3,-1
 75 0 l 1,4,-1
 75 675 l 1,5,-1
 255 675 l 2,6,7
 318 675 318 675 359 614 c 0,8,9
 393 561 393 561 393 497 c 0,10,11
 393 452 393 452 384 428 c 0,12,13
 372 397 372 397 339 375 c 1,14,15
 378 360 378 360 406 315 c 0,16,17
 435 267 435 267 435 207 c 0,0,1
322 497 m 0,18,19
 322 542 322 542 294.5 571 c 128,-1,20
 267 600 267 600 217 600 c 2,21,-1
 150 600 l 1,22,-1
 150 400 l 1,23,-1
 217 400 l 2,24,25
 279 400 279 400 303 429 c 0,26,27
 322 451 322 451 322 497 c 0,18,19
360 207 m 0,28,29
 360 262 360 262 333 299 c 0,30,31
 303 338 303 338 255 338 c 2,32,-1
 150 338 l 1,33,-1
 150 75 l 1,34,-1
 255 75 l 2,35,36
 320 75 320 75 343 115 c 0,37,38
 360 143 360 143 360 207 c 0,28,29
EndSplineSet
EndChar

StartChar: C
Encoding: 67 67 38
Width: 510
GlyphClass: 2
Flags: W
LayerCount: 2
Fore
SplineSet
435 169 m 1,0,1
 435 117 435 117 413 77 c 0,2,3
 369 0 369 0 255 0 c 0,4,5
 137 0 137 0 98 120 c 0,6,7
 75 189 75 189 75 338 c 256,8,9
 75 487 75 487 98 555 c 0,10,11
 137 675 137 675 255 675 c 0,12,13
 369 675 369 675 413 598 c 0,14,15
 435 558 435 558 435 506 c 1,16,-1
 360 506 l 1,17,18
 360 600 360 600 255 600 c 0,19,20
 189 600 189 600 165 507 c 0,21,22
 150 449 150 449 150 338 c 256,23,24
 150 227 150 227 165 169 c 0,25,26
 189 75 189 75 255 75 c 0,27,28
 360 75 360 75 360 169 c 1,29,-1
 435 169 l 1,0,1
EndSplineSet
EndChar

StartChar: D
Encoding: 68 68 39
Width: 510
GlyphClass: 2
Flags: W
LayerCount: 2
Fore
SplineSet
435 338 m 0,0,1
 435 199 435 199 413 128 c 0,2,3
 372 0 372 0 255 0 c 2,4,-1
 75 0 l 1,5,-1
 75 675 l 1,6,-1
 255 675 l 2,7,8
 371 675 371 675 413 544 c 0,9,10
 435 472 435 472 435 338 c 0,0,1
360 338 m 0,11,12
 360 450 360 450 351 495 c 0,13,14
 329 600 329 600 255 600 c 2,15,-1
 150 600 l 1,16,-1
 150 75 l 1,17,-1
 255 75 l 2,18,19
 329 75 329 75 351 177 c 0,20,21
 360 221 360 221 360 338 c 0,11,12
EndSplineSet
EndChar

StartChar: E
Encoding: 69 69 40
Width: 510
GlyphClass: 2
Flags: W
LayerCount: 2
Fore
SplineSet
435 0 m 1,0,-1
 75 0 l 1,1,-1
 75 675 l 1,2,-1
 435 675 l 1,3,-1
 435 600 l 1,4,-1
 150 600 l 1,5,-1
 150 375 l 1,6,-1
 360 375 l 1,7,-1
 360 300 l 1,8,-1
 150 300 l 1,9,-1
 150 75 l 1,10,-1
 435 75 l 1,11,-1
 435 0 l 1,0,-1
EndSplineSet
EndChar

StartChar: F
Encoding: 70 70 41
Width: 510
GlyphClass: 2
Flags: W
LayerCount: 2
Fore
SplineSet
435 600 m 1,0,-1
 150 600 l 1,1,-1
 150 375 l 1,2,-1
 360 375 l 1,3,-1
 360 300 l 1,4,-1
 150 300 l 1,5,-1
 150 0 l 1,6,-1
 75 0 l 1,7,-1
 75 675 l 1,8,-1
 435 675 l 1,9,-1
 435 600 l 1,0,-1
EndSplineSet
EndChar

StartChar: G
Encoding: 71 71 42
Width: 510
GlyphClass: 2
Flags: W
LayerCount: 2
Fore
SplineSet
435 169 m 2,0,1
 435 111 435 111 403 66 c 0,2,3
 356 0 356 0 255 0 c 0,4,5
 153 0 153 0 107 124 c 0,6,7
 75 210 75 210 75 338 c 0,8,9
 75 465 75 465 107 552 c 0,10,11
 153 675 153 675 255 675 c 0,12,13
 354 675 354 675 403 602 c 0,14,15
 435 554 435 554 435 506 c 1,16,-1
 360 506 l 1,17,18
 348 600 348 600 255 600 c 0,19,20
 189 600 189 600 165 507 c 0,21,22
 150 449 150 449 150 338 c 0,23,24
 150 75 150 75 255 75 c 256,25,26
 360 75 360 75 360 169 c 2,27,-1
 360 300 l 1,28,-1
 255 300 l 1,29,-1
 255 375 l 1,30,-1
 435 375 l 1,31,-1
 435 169 l 2,0,1
EndSplineSet
EndChar

StartChar: H
Encoding: 72 72 43
Width: 510
GlyphClass: 2
Flags: W
LayerCount: 2
Fore
SplineSet
435 0 m 1,0,-1
 360 0 l 1,1,-1
 360 300 l 1,2,-1
 150 300 l 1,3,-1
 150 0 l 1,4,-1
 75 0 l 1,5,-1
 75 675 l 1,6,-1
 150 675 l 1,7,-1
 150 375 l 1,8,-1
 360 375 l 1,9,-1
 360 675 l 1,10,-1
 435 675 l 1,11,-1
 435 0 l 1,0,-1
EndSplineSet
EndChar

StartChar: I
Encoding: 73 73 44
Width: 510
GlyphClass: 2
Flags: W
LayerCount: 2
Fore
SplineSet
375 0 m 1,0,-1
 135 0 l 1,1,-1
 135 75 l 1,2,-1
 217 75 l 1,3,-1
 217 600 l 1,4,-1
 135 600 l 1,5,-1
 135 675 l 1,6,-1
 375 675 l 1,7,-1
 375 600 l 1,8,-1
 292 600 l 1,9,-1
 292 75 l 1,10,-1
 375 75 l 1,11,-1
 375 0 l 1,0,-1
EndSplineSet
EndChar

StartChar: J
Encoding: 74 74 45
Width: 510
GlyphClass: 2
Flags: W
LayerCount: 2
Fore
SplineSet
360 338 m 2,0,1
 360 169 360 169 338 106 c 0,2,3
 300 0 300 0 180 0 c 0,4,5
 0 0 0 0 0 169 c 2,6,-1
 0 253 l 1,7,-1
 75 253 l 1,8,-1
 75 169 l 2,9,10
 75 75 75 75 180 75 c 0,11,12
 249 75 249 75 270 143 c 0,13,14
 285 192 285 192 285 338 c 2,15,-1
 285 675 l 1,16,-1
 360 675 l 1,17,-1
 360 338 l 2,0,1
EndSplineSet
EndChar

StartChar: K
Encoding: 75 75 46
Width: 510
GlyphClass: 2
Flags: W
LayerCount: 2
Fore
SplineSet
510 0 m 1,0,-1
 430 0 l 1,1,-1
 210 300 l 1,2,-1
 150 300 l 1,3,-1
 150 0 l 1,4,-1
 75 0 l 1,5,-1
 75 675 l 1,6,-1
 150 675 l 1,7,-1
 150 375 l 1,8,-1
 360 675 l 1,9,-1
 450 675 l 1,10,-1
 240 375 l 2,11,12
 239 374 239 374 510 0 c 1,0,-1
EndSplineSet
EndChar

StartChar: L
Encoding: 76 76 47
Width: 510
GlyphClass: 2
Flags: W
LayerCount: 2
Fore
SplineSet
435 0 m 1,0,-1
 75 0 l 1,1,-1
 75 675 l 1,2,-1
 150 675 l 1,3,-1
 150 75 l 1,4,-1
 435 75 l 1,5,-1
 435 0 l 1,0,-1
EndSplineSet
EndChar

StartChar: M
Encoding: 77 77 48
Width: 510
GlyphClass: 2
Flags: W
LayerCount: 2
Fore
SplineSet
460 0 m 1,0,-1
 385 0 l 1,1,-1
 385 506 l 1,2,-1
 292 260 l 1,3,-1
 217 260 l 1,4,-1
 125 506 l 1,5,-1
 125 0 l 1,6,-1
 50 0 l 1,7,-1
 50 675 l 1,8,-1
 125 675 l 1,9,-1
 255 350 l 1,10,-1
 385 675 l 1,11,-1
 460 675 l 1,12,-1
 460 0 l 1,0,-1
EndSplineSet
EndChar

StartChar: N
Encoding: 78 78 49
Width: 510
GlyphClass: 2
Flags: W
LayerCount: 2
Fore
SplineSet
435 0 m 1,0,-1
 360 0 l 1,1,-1
 150 500 l 1,2,-1
 150 0 l 1,3,-1
 75 0 l 1,4,-1
 75 675 l 1,5,-1
 150 675 l 1,6,-1
 360 170 l 1,7,-1
 360 675 l 1,8,-1
 435 675 l 1,9,-1
 435 0 l 1,0,-1
EndSplineSet
EndChar

StartChar: O
Encoding: 79 79 50
Width: 510
GlyphClass: 2
Flags: W
LayerCount: 2
Fore
SplineSet
445 338 m 0,0,1
 445 195 445 195 418 120 c 0,2,3
 373 0 373 0 255 0 c 256,4,5
 137 0 137 0 93 120 c 0,6,7
 65 195 65 195 65 338 c 0,8,9
 65 480 65 480 93 555 c 0,10,11
 137 675 137 675 255 675 c 256,12,13
 373 675 373 675 418 555 c 0,14,15
 445 480 445 480 445 338 c 0,0,1
360 338 m 0,16,17
 360 449 360 449 345 507 c 0,18,19
 321 600 321 600 255 600 c 256,20,21
 189 600 189 600 165 507 c 0,22,23
 150 449 150 449 150 338 c 0,24,25
 150 230 150 230 165 173 c 0,26,27
 190 84 190 84 256 84 c 0,28,29
 321 84 321 84 345 173 c 0,30,31
 360 229 360 229 360 338 c 0,16,17
EndSplineSet
EndChar

StartChar: P
Encoding: 80 80 51
Width: 510
GlyphClass: 2
Flags: W
LayerCount: 2
Fore
SplineSet
255 300 m 2,0,-1
 150 300 l 1,1,-1
 150 0 l 1,2,-1
 75 0 l 1,3,-1
 75 675 l 1,4,-1
 255 675 l 2,5,6
 341 675 341 675 392 616 c 0,7,8
 438 563 438 563 438 487 c 256,9,10
 438 411 438 411 392 359 c 0,11,12
 341 300 341 300 255 300 c 2,0,-1
255 375 m 2,13,14
 306 375 306 375 336 410 c 0,15,16
 363 442 363 442 363 487 c 0,17,18
 363 533 363 533 336 565 c 0,19,20
 306 600 306 600 255 600 c 2,21,-1
 150 600 l 1,22,-1
 150 375 l 1,23,-1
 255 375 l 2,13,14
EndSplineSet
EndChar

StartChar: Q
Encoding: 81 81 52
Width: 510
GlyphClass: 2
Flags: W
LayerCount: 2
Fore
SplineSet
469 4 m 1,0,-1
 413 -43 l 1,1,2
 393 -17 393 -17 357 24 c 1,3,4
 344 0 344 0 255 0 c 0,5,6
 137 0 137 0 93 120 c 0,7,8
 65 195 65 195 65 338 c 0,9,10
 65 480 65 480 93 555 c 0,11,12
 137 675 137 675 255 675 c 256,13,14
 373 675 373 675 418 555 c 0,15,16
 445 480 445 480 445 338 c 0,17,18
 445 138 445 138 405 75 c 1,19,-1
 469 4 l 1,0,-1
360 338 m 0,20,21
 360 449 360 449 345 507 c 0,22,23
 321 600 321 600 255 600 c 256,24,25
 189 600 189 600 165 507 c 0,26,27
 150 449 150 449 150 338 c 256,28,29
 150 227 150 227 165 169 c 0,30,31
 189 75 189 75 255 75 c 0,32,33
 288 75 288 75 306 88 c 1,34,-1
 242 167 l 1,35,-1
 294 213 l 1,36,-1
 346 153 l 1,37,38
 360 245 360 245 360 338 c 0,20,21
EndSplineSet
EndChar

StartChar: R
Encoding: 82 82 53
Width: 510
GlyphClass: 2
Flags: W
LayerCount: 2
Fore
SplineSet
510 0 m 1,0,-1
 425 0 l 1,1,-1
 250 300 l 1,2,-1
 150 300 l 1,3,-1
 150 0 l 1,4,-1
 75 0 l 1,5,-1
 75 675 l 1,6,-1
 255 675 l 2,7,8
 346 675 346 675 393 619 c 0,9,10
 435 569 435 569 435 487 c 0,11,12
 435 416 435 416 408 374 c 0,13,14
 384 338 384 338 330 310 c 1,15,-1
 510 0 l 1,0,-1
360 487 m 0,16,17
 360 541 360 541 323 574 c 0,18,19
 292 600 292 600 255 600 c 2,20,-1
 150 600 l 1,21,-1
 150 375 l 1,22,-1
 255 375 l 2,23,24
 294 375 294 375 324 401 c 0,25,26
 360 432 360 432 360 487 c 0,16,17
EndSplineSet
EndChar

StartChar: S
Encoding: 83 83 54
Width: 510
GlyphClass: 2
Flags: W
LayerCount: 2
Fore
SplineSet
435 169 m 0,0,1
 435 0 435 0 255 0 c 256,2,3
 75 0 75 0 75 169 c 1,4,-1
 150 169 l 1,5,6
 150 118 150 118 175.5 96.5 c 128,-1,7
 201 75 201 75 255 75 c 256,8,9
 309 75 309 75 326 85 c 0,10,11
 360 103 360 103 360 169 c 0,12,13
 360 208 360 208 286 256 c 0,14,15
 170 333 170 333 149 352 c 0,16,17
 75 420 75 420 75 506 c 0,18,19
 75 675 75 675 255 675 c 0,20,21
 413 675 413 675 435 506 c 1,22,-1
 360 506 l 1,23,24
 360 546 360 546 334 572 c 0,25,26
 305 600 305 600 255 600 c 0,27,28
 201 600 201 600 175.5 578.5 c 128,-1,29
 150 557 150 557 150 506 c 0,30,31
 150 444 150 444 224 390 c 0,32,33
 292 344 292 344 361 299 c 1,34,35
 435 240 435 240 435 169 c 0,0,1
EndSplineSet
EndChar

StartChar: T
Encoding: 84 84 55
Width: 510
GlyphClass: 2
Flags: W
LayerCount: 2
Fore
SplineSet
435 600 m 1,0,-1
 292 600 l 1,1,-1
 292 0 l 1,2,-1
 217 0 l 1,3,-1
 217 600 l 1,4,-1
 75 600 l 1,5,-1
 75 675 l 1,6,-1
 435 675 l 1,7,-1
 435 600 l 1,0,-1
EndSplineSet
EndChar

StartChar: U
Encoding: 85 85 56
Width: 510
GlyphClass: 2
Flags: W
LayerCount: 2
Fore
SplineSet
435 200 m 2,0,1
 435 0 435 0 255 0 c 256,2,3
 75 0 75 0 75 200 c 2,4,-1
 75 675 l 1,5,-1
 150 675 l 1,6,-1
 150 300 l 2,7,8
 150 160 150 160 167 120 c 0,9,10
 186 75 186 75 255 75 c 256,11,12
 324 75 324 75 343 120 c 0,13,14
 360 160 360 160 360 300 c 2,15,-1
 360 675 l 1,16,-1
 435 675 l 1,17,-1
 435 200 l 2,0,1
EndSplineSet
EndChar

StartChar: V
Encoding: 86 86 57
Width: 510
GlyphClass: 2
Flags: W
LayerCount: 2
Fore
SplineSet
510 675 m 1,0,-1
 292 0 l 1,1,-1
 217 0 l 1,2,-1
 0 675 l 1,3,-1
 80 675 l 1,4,-1
 255 90 l 1,5,-1
 430 675 l 1,6,-1
 510 675 l 1,0,-1
EndSplineSet
EndChar

StartChar: W
Encoding: 87 87 58
Width: 510
GlyphClass: 2
Flags: W
LayerCount: 2
Fore
SplineSet
505 675 m 1,0,-1
 425 0 l 1,1,-1
 325 0 l 1,2,-1
 255 440 l 1,3,-1
 185 0 l 1,4,-1
 85 0 l 1,5,-1
 5 675 l 1,6,-1
 80 675 l 1,7,-1
 140 80 l 1,8,-1
 217 560 l 1,9,-1
 292 560 l 1,10,-1
 370 80 l 1,11,-1
 430 675 l 1,12,-1
 505 675 l 1,0,-1
EndSplineSet
EndChar

StartChar: X
Encoding: 88 88 59
Width: 510
GlyphClass: 2
Flags: W
LayerCount: 2
Fore
SplineSet
460 0 m 1,0,-1
 385 0 l 1,1,-1
 255 310 l 1,2,-1
 125 0 l 1,3,-1
 50 0 l 1,4,-1
 210 375 l 1,5,-1
 60 675 l 1,6,-1
 135 675 l 1,7,-1
 255 430 l 1,8,-1
 375 675 l 1,9,-1
 450 675 l 1,10,-1
 300 375 l 1,11,-1
 460 0 l 1,0,-1
EndSplineSet
EndChar

StartChar: Y
Encoding: 89 89 60
Width: 510
GlyphClass: 2
Flags: W
LayerCount: 2
Fore
SplineSet
435 675 m 1,0,-1
 292 300 l 1,1,-1
 292 0 l 1,2,-1
 217 0 l 1,3,-1
 217 300 l 1,4,-1
 75 675 l 1,5,-1
 150 675 l 1,6,-1
 255 400 l 1,7,-1
 360 675 l 1,8,-1
 435 675 l 1,0,-1
EndSplineSet
EndChar

StartChar: Z
Encoding: 90 90 61
Width: 510
GlyphClass: 2
Flags: W
LayerCount: 2
Fore
SplineSet
435 0 m 1,0,-1
 75 0 l 1,1,-1
 320 600 l 1,2,-1
 75 600 l 1,3,-1
 75 675 l 1,4,-1
 435 675 l 1,5,-1
 190 75 l 1,6,-1
 435 75 l 1,7,-1
 435 0 l 1,0,-1
EndSplineSet
EndChar

StartChar: bracketleft
Encoding: 91 91 62
Width: 510
GlyphClass: 2
Flags: W
LayerCount: 2
Fore
SplineSet
435 -75 m 1,0,-1
 180 -75 l 1,1,-1
 180 750 l 1,2,-1
 435 750 l 1,3,-1
 435 675 l 1,4,-1
 255 675 l 1,5,-1
 255 0 l 1,6,-1
 435 0 l 1,7,-1
 435 -75 l 1,0,-1
EndSplineSet
EndChar

StartChar: backslash
Encoding: 92 92 63
Width: 510
GlyphClass: 2
Flags: W
LayerCount: 2
Fore
SplineSet
510 -75 m 1,0,-1
 415 -75 l 1,1,-1
 0 750 l 1,2,-1
 95 750 l 1,3,-1
 510 -75 l 1,0,-1
EndSplineSet
EndChar

StartChar: bracketright
Encoding: 93 93 64
Width: 510
GlyphClass: 2
Flags: W
LayerCount: 2
Fore
SplineSet
330 -75 m 1,0,-1
 75 -75 l 1,1,-1
 75 0 l 1,2,-1
 255 0 l 1,3,-1
 255 675 l 1,4,-1
 75 675 l 1,5,-1
 75 750 l 1,6,-1
 330 750 l 1,7,-1
 330 -75 l 1,0,-1
EndSplineSet
EndChar

StartChar: asciicircum
Encoding: 94 94 65
Width: 510
GlyphClass: 2
Flags: W
LayerCount: 2
Fore
SplineSet
460 506 m 1,0,-1
 370 506 l 1,1,-1
 255 675 l 1,2,-1
 140 506 l 1,3,-1
 50 506 l 1,4,-1
 217 750 l 1,5,-1
 292 750 l 1,6,-1
 460 506 l 1,0,-1
EndSplineSet
EndChar

StartChar: underscore
Encoding: 95 95 66
Width: 510
GlyphClass: 2
Flags: W
LayerCount: 2
Fore
SplineSet
435 -75 m 1,0,-1
 75 -75 l 1,1,-1
 75 0 l 1,2,-1
 435 0 l 1,3,-1
 435 -75 l 1,0,-1
EndSplineSet
EndChar

StartChar: grave
Encoding: 96 96 67
Width: 510
GlyphClass: 2
Flags: W
LayerCount: 2
Fore
SplineSet
292 300 m 1,0,-1
 217 300 l 1,1,-1
 217 375 l 1,2,-1
 292 375 l 1,3,-1
 292 300 l 1,0,-1
EndSplineSet
EndChar

StartChar: a
Encoding: 97 97 68
Width: 510
GlyphClass: 2
Flags: W
LayerCount: 2
Fore
SplineSet
435 0 m 1,0,-1
 360 0 l 1,1,-1
 360 40 l 1,2,3
 341 17 341 17 255 0 c 1,4,5
 167 0 167 0 120 47 c 0,6,7
 75 91 75 91 75 169 c 0,8,9
 75 239 75 239 174 291 c 0,10,11
 264 338 264 338 360 338 c 1,12,13
 346 431 346 431 255 431 c 0,14,15
 209 431 209 431 182 409 c 0,16,17
 169 398 169 398 135 350 c 1,18,-1
 75 385 l 1,19,20
 110 446 110 446 143 472 c 0,21,22
 186 506 186 506 255 506 c 0,23,24
 331 506 331 506 383 459 c 128,-1,25
 435 412 435 412 435 338 c 2,26,-1
 435 0 l 1,0,-1
360 200 m 2,27,-1
 360 268 l 1,28,29
 292 268 292 268 225 241 c 0,30,31
 150 211 150 211 150 169 c 0,32,33
 150 75 150 75 255 75 c 0,34,35
 298 75 298 75 326 104 c 0,36,37
 360 138 360 138 360 200 c 2,27,-1
EndSplineSet
EndChar

StartChar: b
Encoding: 98 98 69
Width: 510
GlyphClass: 2
Flags: W
LayerCount: 2
Fore
SplineSet
435 253 m 256,0,1
 435 139 435 139 405 82 c 0,2,3
 363 0 363 0 255 0 c 2,4,-1
 75 0 l 1,5,-1
 75 675 l 1,6,-1
 150 675 l 1,7,-1
 150 506 l 1,8,-1
 255 506 l 2,9,10
 363 506 363 506 405 425 c 0,11,12
 435 367 435 367 435 253 c 256,0,1
360 253 m 256,13,14
 360 329 360 329 345 368 c 0,15,16
 321 431 321 431 255 431 c 2,17,-1
 150 431 l 1,18,-1
 150 75 l 1,19,-1
 255 75 l 2,20,21
 321 75 321 75 345 138 c 0,22,23
 360 177 360 177 360 253 c 256,13,14
EndSplineSet
EndChar

StartChar: c
Encoding: 99 99 70
Width: 510
GlyphClass: 2
Flags: W
LayerCount: 2
Fore
SplineSet
435 169 m 1,0,1
 435 114 435 114 405 70 c 0,2,3
 358 0 358 0 255 0 c 0,4,5
 147 0 147 0 105 82 c 0,6,7
 75 139 75 139 75 253 c 256,8,9
 75 367 75 367 105 425 c 0,10,11
 147 506 147 506 255 506 c 0,12,13
 358 506 358 506 405 437 c 0,14,15
 435 393 435 393 435 338 c 1,16,-1
 360 338 l 1,17,18
 360 431 360 431 255 431 c 0,19,20
 189 431 189 431 165 368 c 0,21,22
 150 329 150 329 150 253 c 256,23,24
 150 177 150 177 165 138 c 0,25,26
 189 75 189 75 255 75 c 0,27,28
 360 75 360 75 360 169 c 1,29,-1
 435 169 l 1,0,1
EndSplineSet
EndChar

StartChar: d
Encoding: 100 100 71
Width: 510
GlyphClass: 2
Flags: W
LayerCount: 2
Fore
SplineSet
435 0 m 1,0,-1
 255 0 l 2,1,2
 147 0 147 0 105 82 c 0,3,4
 75 139 75 139 75 253 c 256,5,6
 75 367 75 367 105 425 c 0,7,8
 147 506 147 506 255 506 c 2,9,-1
 360 506 l 1,10,-1
 360 675 l 1,11,-1
 435 675 l 1,12,-1
 435 0 l 1,0,-1
360 75 m 1,13,-1
 360 431 l 1,14,-1
 255 431 l 2,15,16
 189 431 189 431 165 368 c 0,17,18
 150 329 150 329 150 253 c 256,19,20
 150 177 150 177 165 138 c 0,21,22
 189 75 189 75 255 75 c 2,23,-1
 360 75 l 1,13,-1
EndSplineSet
EndChar

StartChar: e
Encoding: 101 101 72
Width: 510
GlyphClass: 2
Flags: W
LayerCount: 2
Fore
SplineSet
435 215 m 1,0,-1
 150 215 l 1,1,2
 150 168 150 168 165 134 c 0,3,4
 191 75 191 75 255 75 c 0,5,6
 348 75 348 75 355 140 c 1,7,-1
 430 140 l 1,8,9
 430 90 430 90 403 55 c 0,10,11
 359 0 359 0 255 0 c 0,12,13
 147 0 147 0 105 82 c 0,14,15
 75 139 75 139 75 253 c 256,16,17
 75 367 75 367 105 425 c 0,18,19
 147 506 147 506 255 506 c 0,20,21
 364 506 364 506 405 421 c 0,22,23
 435 357 435 357 435 215 c 1,0,-1
360 290 m 1,24,25
 360 431 360 431 255 431 c 256,26,27
 150 431 150 431 150 290 c 1,28,-1
 360 290 l 1,24,25
EndSplineSet
EndChar

StartChar: f
Encoding: 102 102 73
Width: 510
GlyphClass: 2
Flags: W
LayerCount: 2
Fore
SplineSet
435 600 m 1,0,-1
 360 600 l 2,1,2
 304 600 304 600 275 531 c 0,3,4
 254 480 254 480 254 420 c 2,5,-1
 255 375 l 1,6,-1
 360 375 l 1,7,-1
 360 300 l 1,8,-1
 255 300 l 1,9,-1
 255 0 l 1,10,-1
 180 0 l 1,11,-1
 180 300 l 1,12,-1
 75 300 l 1,13,-1
 75 375 l 1,14,-1
 180 375 l 1,15,-1
 180 421 l 2,16,17
 180 675 180 675 360 675 c 2,18,-1
 435 675 l 1,19,-1
 435 600 l 1,0,-1
EndSplineSet
EndChar

StartChar: g
Encoding: 103 103 74
Width: 510
GlyphClass: 2
Flags: W
LayerCount: 2
Fore
SplineSet
435 0 m 2,0,1
 435 -105 435 -105 386 -152 c 0,2,3
 346 -190 346 -190 257 -198 c 0,4,5
 236 -200 236 -200 75 -200 c 1,6,-1
 75 -125 l 1,7,8
 221 -125 221 -125 264 -116 c 0,9,10
 360 -97 360 -97 360 -25 c 2,11,-1
 360 0 l 1,12,-1
 255 0 l 2,13,14
 147 0 147 0 105 82 c 0,15,16
 75 139 75 139 75 253 c 0,17,18
 75 506 75 506 255 506 c 2,19,-1
 435 506 l 1,20,-1
 435 0 l 2,0,1
360 75 m 1,21,-1
 360 431 l 1,22,-1
 255 431 l 2,23,24
 189 431 189 431 165 368 c 0,25,26
 150 329 150 329 150 253 c 256,27,28
 150 177 150 177 165 138 c 0,29,30
 189 75 189 75 255 75 c 2,31,-1
 360 75 l 1,21,-1
EndSplineSet
EndChar

StartChar: h
Encoding: 104 104 75
Width: 510
GlyphClass: 2
Flags: W
LayerCount: 2
Fore
SplineSet
435 0 m 1,0,-1
 360 0 l 1,1,-1
 360 338 l 2,2,3
 360 389 360 389 334.5 410 c 128,-1,4
 309 431 309 431 255 431 c 0,5,6
 206 431 206 431 176 400 c 0,7,8
 150 372 150 372 150 338 c 2,9,-1
 150 0 l 1,10,-1
 75 0 l 1,11,-1
 75 675 l 1,12,-1
 150 675 l 1,13,-1
 150 458 l 2,14,15
 152 458 152 458 162.5 471.5 c 128,-1,16
 173 485 173 485 190 494 c 0,17,18
 215 506 215 506 255 506 c 0,19,20
 333 506 333 506 379 471 c 0,21,22
 435 428 435 428 435 338 c 2,23,-1
 435 0 l 1,0,-1
EndSplineSet
EndChar

StartChar: i
Encoding: 105 105 76
Width: 510
GlyphClass: 2
Flags: W
LayerCount: 2
Fore
SplineSet
292 630 m 1,0,-1
 217 630 l 1,1,-1
 217 705 l 1,2,-1
 292 705 l 1,3,-1
 292 630 l 1,0,-1
292 0 m 1,4,-1
 217 0 l 1,5,-1
 217 506 l 1,6,-1
 292 506 l 1,7,-1
 292 0 l 1,4,-1
EndSplineSet
EndChar

StartChar: j
Encoding: 106 106 77
Width: 510
GlyphClass: 2
Flags: W
LayerCount: 2
Fore
SplineSet
255 630 m 1,0,-1
 180 630 l 1,1,-1
 180 705 l 1,2,-1
 255 705 l 1,3,-1
 255 630 l 1,0,-1
255 0 m 2,4,5
 255 -111 255 -111 173 -164 c 0,6,7
 116 -200 116 -200 39 -200 c 0,8,9
 17 -200 17 -200 0 -200 c 1,10,-1
 0 -125 l 1,11,12
 19 -124 19 -124 41 -124 c 0,13,14
 93 -124 93 -124 131 -98 c 0,15,16
 180 -65 180 -65 180 0 c 2,17,-1
 180 506 l 1,18,-1
 255 506 l 1,19,-1
 255 0 l 2,4,5
EndSplineSet
EndChar

StartChar: k
Encoding: 107 107 78
Width: 510
GlyphClass: 2
Flags: W
LayerCount: 2
Fore
SplineSet
450 0 m 1,0,-1
 365 0 l 1,1,-1
 200 263 l 1,2,-1
 150 263 l 1,3,-1
 150 0 l 1,4,-1
 75 0 l 1,5,-1
 75 675 l 1,6,-1
 150 675 l 1,7,-1
 150 338 l 1,8,-1
 340 506 l 1,9,-1
 435 506 l 1,10,-1
 240 338 l 1,11,-1
 450 0 l 1,0,-1
EndSplineSet
EndChar

StartChar: l
Encoding: 108 108 79
Width: 510
GlyphClass: 2
Flags: W
LayerCount: 2
Fore
SplineSet
410 0 m 1,0,-1
 217 0 l 1,1,-1
 217 675 l 1,2,-1
 292 675 l 1,3,-1
 292 75 l 1,4,-1
 410 75 l 1,5,-1
 410 0 l 1,0,-1
EndSplineSet
EndChar

StartChar: m
Encoding: 109 109 80
Width: 510
GlyphClass: 2
Flags: W
LayerCount: 2
Fore
SplineSet
460 0 m 1,0,-1
 385 0 l 1,1,-1
 385 338 l 2,2,3
 385 431 385 431 340 431 c 0,4,5
 292 431 292 431 292 338 c 2,6,-1
 292 0 l 1,7,-1
 217 0 l 1,8,-1
 217 338 l 2,9,10
 217 431 217 431 171 431 c 2,11,-1
 125 431 l 1,12,-1
 125 0 l 1,13,-1
 50 0 l 1,14,-1
 50 506 l 1,15,-1
 171 506 l 2,16,17
 231 506 231 506 255 445 c 1,18,19
 279 506 279 506 340 506 c 0,20,21
 460 506 460 506 460 338 c 2,22,-1
 460 0 l 1,0,-1
EndSplineSet
EndChar

StartChar: n
Encoding: 110 110 81
Width: 510
GlyphClass: 2
Flags: W
LayerCount: 2
Fore
SplineSet
435 0 m 1,0,-1
 360 0 l 1,1,-1
 360 253 l 2,2,3
 360 331 360 331 345 369 c 0,4,5
 321 431 321 431 255 431 c 2,6,-1
 150 431 l 1,7,-1
 150 0 l 1,8,-1
 75 0 l 1,9,-1
 75 506 l 1,10,-1
 255 506 l 2,11,12
 362 506 362 506 405 422 c 0,13,14
 435 363 435 363 435 253 c 2,15,-1
 435 0 l 1,0,-1
EndSplineSet
EndChar

StartChar: o
Encoding: 111 111 82
Width: 510
GlyphClass: 2
Flags: W
LayerCount: 2
Fore
SplineSet
435 253 m 256,0,1
 435 139 435 139 405 82 c 0,2,3
 363 0 363 0 255 0 c 256,4,5
 147 0 147 0 105 82 c 0,6,7
 75 139 75 139 75 253 c 256,8,9
 75 367 75 367 105 425 c 0,10,11
 147 506 147 506 255 506 c 256,12,13
 363 506 363 506 405 425 c 0,14,15
 435 367 435 367 435 253 c 256,0,1
360 253 m 256,16,17
 360 329 360 329 345 368 c 0,18,19
 321 431 321 431 255 431 c 256,20,21
 189 431 189 431 165 368 c 0,22,23
 150 329 150 329 150 253 c 256,24,25
 150 177 150 177 165 138 c 0,26,27
 189 75 189 75 255 75 c 256,28,29
 321 75 321 75 345 138 c 0,30,31
 360 177 360 177 360 253 c 256,16,17
EndSplineSet
EndChar

StartChar: p
Encoding: 112 112 83
Width: 510
GlyphClass: 2
Flags: W
LayerCount: 2
Fore
SplineSet
435 253 m 0,0,1
 435 139 435 139 405 82 c 0,2,3
 363 0 363 0 255 0 c 2,4,-1
 150 0 l 1,5,-1
 150 -200 l 1,6,-1
 75 -200 l 1,7,-1
 75 506 l 1,8,-1
 255 506 l 2,9,10
 435 506 435 506 435 253 c 0,0,1
360 253 m 256,11,12
 360 329 360 329 345 368 c 0,13,14
 321 431 321 431 255 431 c 2,15,-1
 150 431 l 1,16,-1
 150 75 l 1,17,-1
 255 75 l 2,18,19
 321 75 321 75 345 138 c 0,20,21
 360 177 360 177 360 253 c 256,11,12
EndSplineSet
EndChar

StartChar: q
Encoding: 113 113 84
Width: 510
GlyphClass: 2
Flags: W
LayerCount: 2
Fore
SplineSet
435 -200 m 1,0,-1
 360 -200 l 1,1,-1
 360 0 l 1,2,-1
 255 0 l 2,3,4
 147 0 147 0 105 82 c 0,5,6
 75 139 75 139 75 253 c 0,7,8
 75 506 75 506 255 506 c 2,9,-1
 435 506 l 1,10,-1
 435 -200 l 1,0,-1
360 75 m 1,11,-1
 360 431 l 1,12,-1
 255 431 l 2,13,14
 189 431 189 431 165 368 c 0,15,16
 150 329 150 329 150 253 c 256,17,18
 150 177 150 177 165 138 c 0,19,20
 189 75 189 75 255 75 c 2,21,-1
 360 75 l 1,11,-1
EndSplineSet
EndChar

StartChar: r
Encoding: 114 114 85
Width: 510
GlyphClass: 2
Flags: W
LayerCount: 2
Fore
SplineSet
435 338 m 1,0,-1
 360 338 l 1,1,2
 348 431 348 431 255 431 c 0,3,4
 186 431 186 431 173 422 c 0,5,6
 150 407 150 407 150 338 c 2,7,-1
 150 0 l 1,8,-1
 75 0 l 1,9,-1
 75 506 l 1,10,-1
 255 506 l 2,11,12
 368 506 368 506 413 422 c 0,13,14
 431 387 431 387 435 338 c 1,0,-1
EndSplineSet
EndChar

StartChar: s
Encoding: 115 115 86
Width: 510
GlyphClass: 2
Flags: W
LayerCount: 2
Fore
SplineSet
435 169 m 0,0,1
 435 95 435 95 383 47.5 c 128,-1,2
 331 0 331 0 255 0 c 0,3,4
 182 0 182 0 128.5 52 c 128,-1,5
 75 104 75 104 75 169 c 1,6,-1
 150 169 l 1,7,8
 150 133 150 133 176 106 c 0,9,10
 206 75 206 75 255 75 c 0,11,12
 360 75 360 75 360 169 c 0,13,14
 360 205 360 205 286 224 c 0,15,16
 218 240 218 240 149 256 c 1,17,18
 75 283 75 283 75 338 c 0,19,20
 75 412 75 412 127 459 c 128,-1,21
 179 506 179 506 255 506 c 0,22,23
 328 506 328 506 383 452 c 0,24,25
 435 400 435 400 435 338 c 1,26,-1
 360 338 l 1,27,28
 360 378 360 378 334 403 c 0,29,30
 305 431 305 431 255 431 c 256,31,32
 205 431 205 431 177.5 404.5 c 128,-1,33
 150 378 150 378 150 338 c 0,34,35
 150 320 150 320 224 303 c 0,36,37
 326 280 326 280 361 264 c 0,38,39
 435 230 435 230 435 169 c 0,0,1
EndSplineSet
EndChar

StartChar: t
Encoding: 116 116 87
Width: 510
GlyphClass: 2
Flags: W
LayerCount: 2
Fore
SplineSet
435 0 m 1,0,-1
 295 0 l 2,1,2
 220 0 220 0 196 47 c 0,3,4
 180 79 180 79 180 169 c 2,5,-1
 180 431 l 1,6,-1
 75 431 l 1,7,-1
 75 506 l 1,8,-1
 180 506 l 1,9,-1
 180 675 l 1,10,-1
 255 675 l 1,11,-1
 255 506 l 1,12,-1
 435 506 l 1,13,-1
 435 431 l 1,14,-1
 255 431 l 1,15,-1
 255 169 l 2,16,17
 255 122 255 122 258 108 c 0,18,19
 266 75 266 75 295 75 c 2,20,-1
 435 75 l 1,21,-1
 435 0 l 1,0,-1
EndSplineSet
EndChar

StartChar: u
Encoding: 117 117 88
Width: 510
GlyphClass: 2
Flags: W
LayerCount: 2
Fore
SplineSet
435 253 m 2,0,1
 435 0 435 0 255 0 c 0,2,3
 148 0 148 0 105 84 c 0,4,5
 75 143 75 143 75 253 c 2,6,-1
 75 506 l 1,7,-1
 150 506 l 1,8,-1
 150 253 l 2,9,10
 150 175 150 175 165 137 c 0,11,12
 189 75 189 75 255 75 c 256,13,14
 321 75 321 75 345 137 c 0,15,16
 360 175 360 175 360 253 c 2,17,-1
 360 506 l 1,18,-1
 435 506 l 1,19,-1
 435 253 l 2,0,1
EndSplineSet
EndChar

StartChar: v
Encoding: 118 118 89
Width: 510
GlyphClass: 2
Flags: W
LayerCount: 2
Fore
SplineSet
460 506 m 1,0,-1
 292 0 l 1,1,-1
 217 0 l 1,2,-1
 50 506 l 1,3,-1
 130 506 l 1,4,-1
 255 85 l 1,5,-1
 380 506 l 1,6,-1
 460 506 l 1,0,-1
EndSplineSet
EndChar

StartChar: w
Encoding: 119 119 90
Width: 510
GlyphClass: 2
Flags: W
LayerCount: 2
Fore
SplineSet
500 506 m 1,0,-1
 435 0 l 1,1,-1
 345 0 l 1,2,-1
 255 300 l 1,3,-1
 165 0 l 1,4,-1
 75 0 l 1,5,-1
 10 506 l 1,6,-1
 90 506 l 1,7,-1
 130 100 l 1,8,-1
 227 418 l 1,9,-1
 282 418 l 1,10,-1
 380 100 l 1,11,-1
 420 506 l 1,12,-1
 500 506 l 1,0,-1
EndSplineSet
EndChar

StartChar: x
Encoding: 120 120 91
Width: 510
GlyphClass: 2
Flags: W
LayerCount: 2
Fore
SplineSet
460 0 m 1,0,-1
 365 0 l 1,1,-1
 255 169 l 1,2,-1
 145 0 l 1,3,-1
 50 0 l 1,4,-1
 217 254 l 1,5,-1
 50 506 l 1,6,-1
 145 506 l 1,7,-1
 255 338 l 1,8,-1
 365 506 l 1,9,-1
 460 506 l 1,10,-1
 292 254 l 1,11,-1
 460 0 l 1,0,-1
EndSplineSet
EndChar

StartChar: y
Encoding: 121 121 92
Width: 510
GlyphClass: 2
Flags: W
LayerCount: 2
Fore
SplineSet
440 506 m 1,0,-1
 292 0 l 1,1,2
 286 -58 286 -58 262 -100 c 0,3,4
 206 -200 206 -200 75 -200 c 1,5,-1
 75 -125 l 1,6,7
 191 -125 191 -125 217 0 c 1,8,-1
 70 506 l 1,9,-1
 150 506 l 1,10,-1
 255 100 l 1,11,-1
 360 506 l 1,12,-1
 440 506 l 1,0,-1
EndSplineSet
EndChar

StartChar: z
Encoding: 122 122 93
Width: 510
GlyphClass: 2
Flags: W
LayerCount: 2
Fore
SplineSet
440 506 m 1,0,-1
 200 75 l 1,1,-1
 435 75 l 1,2,-1
 435 0 l 1,3,-1
 70 0 l 1,4,-1
 310 431 l 1,5,-1
 75 431 l 1,6,-1
 75 506 l 1,7,-1
 440 506 l 1,0,-1
EndSplineSet
EndChar

StartChar: braceleft
Encoding: 123 123 94
Width: 510
GlyphClass: 2
Flags: W
LayerCount: 2
Fore
SplineSet
435 -75 m 1,0,1
 317 -75 317 -75 272 -11 c 0,2,3
 242 33 242 33 242 126 c 0,4,5
 242 139 242 139 242 162 c 0,6,7
 243 186 243 186 243 197 c 0,8,9
 243 248 243 248 232 270 c 0,10,11
 218 300 218 300 180 300 c 1,12,-1
 180 375 l 1,13,14
 218 375 218 375 232 405 c 0,15,16
 243 427 243 427 243 478 c 0,17,18
 243 489 243 489 242 513 c 0,19,20
 242 536 242 536 242 549 c 0,21,22
 242 642 242 642 272 686 c 0,23,24
 317 750 317 750 435 750 c 1,25,-1
 435 675 l 1,26,27
 357 675 357 675 329 622 c 0,28,29
 309 586 309 586 309 507 c 0,30,31
 309 498 309 498 310 481 c 0,32,33
 310 464 310 464 310 456 c 0,34,35
 310 402 310 402 301 377 c 0,36,37
 289 343 289 343 255 338 c 1,38,39
 289 333 289 333 301 299 c 0,40,41
 310 274 310 274 310 220 c 0,42,43
 310 212 310 212 310 195 c 0,44,45
 309 178 309 178 309 169 c 0,46,47
 309 89 309 89 329 53 c 0,48,49
 357 0 357 0 435 0 c 1,50,-1
 435 -75 l 1,0,1
EndSplineSet
EndChar

StartChar: bar
Encoding: 124 124 95
Width: 510
GlyphClass: 2
Flags: W
LayerCount: 2
Fore
SplineSet
292 -75 m 1,0,-1
 217 -75 l 1,1,-1
 217 750 l 1,2,-1
 292 750 l 1,3,-1
 292 -75 l 1,0,-1
EndSplineSet
EndChar

StartChar: braceright
Encoding: 125 125 96
Width: 510
GlyphClass: 2
Flags: W
LayerCount: 2
Fore
SplineSet
340 300 m 1,0,1
 278 300 278 300 275 203 c 0,2,3
 269 54 269 54 257 22 c 0,4,5
 219 -75 219 -75 75 -75 c 1,6,-1
 75 0 l 1,7,8
 172 0 172 0 195 83 c 0,9,10
 199 95 199 95 208 241 c 0,11,12
 214 330 214 330 265 338 c 1,13,14
 214 346 214 346 208 434 c 0,15,16
 199 580 199 580 195 592 c 0,17,18
 172 675 172 675 75 675 c 1,19,-1
 75 750 l 1,20,21
 219 750 219 750 257 653 c 0,22,23
 269 621 269 621 275 472 c 0,24,25
 278 375 278 375 340 375 c 1,26,-1
 340 300 l 1,0,1
EndSplineSet
EndChar

StartChar: asciitilde
Encoding: 126 126 97
Width: 510
GlyphClass: 2
Flags: W
LayerCount: 2
Fore
SplineSet
455 625 m 1,0,1
 376 506 376 506 330 506 c 0,2,3
 293 506 293 506 248 570.5 c 128,-1,4
 203 635 203 635 180 635 c 0,5,6
 143 635 143 635 55 506 c 1,7,-1
 55 591 l 1,8,9
 134 710 134 710 180 710 c 0,10,11
 218 710 218 710 263 645.5 c 128,-1,12
 308 581 308 581 330 581 c 0,13,14
 367 581 367 581 455 710 c 1,15,-1
 455 625 l 1,0,1
EndSplineSet
EndChar

StartChar: copyright
Encoding: 128 128 98
Width: 510
GlyphClass: 2
Flags: W
LayerCount: 2
Fore
SplineSet
466 339 m 0,0,1
 466 224 466 224 419 141 c 0,2,3
 361 39 361 39 256 39 c 0,4,5
 149 39 149 39 92 140 c 0,6,7
 47 221 47 221 47 337 c 256,8,9
 47 453 47 453 93 534 c 0,10,11
 149 634 149 634 256 634 c 0,12,13
 364 634 364 634 420 536 c 0,14,15
 466 456 466 456 466 339 c 0,0,1
407 339 m 0,16,17
 407 425 407 425 374 491 c 0,18,19
 332 575 332 575 255 575 c 0,20,21
 174 575 174 575 132 493 c 0,22,23
 98 427 98 427 98 339 c 0,24,25
 98 252 98 252 133 182 c 0,26,27
 176 94 176 94 255 94 c 0,28,29
 329 94 329 94 372 183 c 0,30,31
 407 255 407 255 407 339 c 0,16,17
360 369 m 1,32,-1
 307 369 l 1,33,34
 305 404 305 404 298 419 c 0,35,36
 287 444 287 444 257 444 c 0,37,38
 219 444 219 444 208 406 c 0,39,40
 202 387 202 387 202 338 c 0,41,42
 202 287 202 287 208 268 c 0,43,44
 219 229 219 229 256 229 c 0,45,46
 304 229 304 229 307 302 c 1,47,-1
 359 302 l 1,48,49
 359 246 359 246 336 210 c 0,50,51
 309 167 309 167 255 167 c 0,52,53
 198 167 198 167 171 227 c 0,54,55
 151 272 151 272 151 339 c 0,56,57
 151 417 151 417 166 452 c 0,58,59
 189 506 189 506 256 506 c 0,60,61
 361 506 361 506 360 369 c 1,32,-1
EndSplineSet
EndChar

StartChar: nonbreakingspace
Encoding: 160 160 99
Width: 510
GlyphClass: 2
Flags: W
LayerCount: 2
Fore
SplineSet
292 300 m 1,0,-1
 217 300 l 1,1,-1
 217 375 l 1,2,-1
 292 375 l 1,3,-1
 292 300 l 1,0,-1
EndSplineSet
EndChar

StartChar: exclamdown
Encoding: 161 161 100
Width: 510
GlyphClass: 2
Flags: W
LayerCount: 2
Fore
SplineSet
367 600 m 1,0,-1
 292 600 l 1,1,-1
 292 675 l 1,2,-1
 367 675 l 1,3,-1
 367 600 l 1,0,-1
367 0 m 1,4,-1
 292 0 l 1,5,-1
 292 506 l 1,6,-1
 367 506 l 1,7,-1
 367 0 l 1,4,-1
EndSplineSet
EndChar

StartChar: cent
Encoding: 162 162 101
Width: 510
GlyphClass: 2
Flags: W
LayerCount: 2
Fore
SplineSet
412 238 m 1,0,1
 412 210 412 210 372.5 189.5 c 128,-1,2
 333 169 333 169 292 169 c 1,3,-1
 292 94 l 1,4,-1
 217 94 l 1,5,-1
 217 169 l 1,6,7
 155 169 155 169 115 213.5 c 128,-1,8
 75 258 75 258 75 338 c 256,9,10
 75 418 75 418 115 462 c 128,-1,11
 155 506 155 506 217 506 c 1,12,-1
 217 581 l 1,13,-1
 292 581 l 1,14,-1
 292 506 l 1,15,16
 333 506 333 506 372.5 486 c 128,-1,17
 412 466 412 466 412 438 c 1,18,-1
 365 400 l 1,19,20
 320 431 320 431 292 431 c 1,21,-1
 292 244 l 1,22,23
 320 244 320 244 365 276 c 1,24,-1
 412 238 l 1,0,1
217 244 m 1,25,-1
 217 431 l 1,26,27
 189 428 189 428 169.5 399 c 128,-1,28
 150 370 150 370 150 338 c 0,29,30
 150 305 150 305 169 276 c 0,31,32
 189 244 189 244 217 244 c 1,25,-1
EndSplineSet
EndChar

StartChar: sterling
Encoding: 163 163 102
Width: 510
GlyphClass: 2
Flags: W
LayerCount: 2
Fore
SplineSet
292 300 m 1,0,-1
 217 300 l 1,1,-1
 217 375 l 1,2,-1
 292 375 l 1,3,-1
 292 300 l 1,0,-1
EndSplineSet
EndChar

StartChar: currency
Encoding: 164 164 103
Width: 510
GlyphClass: 2
Flags: W
LayerCount: 2
Fore
SplineSet
292 300 m 1,0,-1
 217 300 l 1,1,-1
 217 375 l 1,2,-1
 292 375 l 1,3,-1
 292 300 l 1,0,-1
EndSplineSet
EndChar

StartChar: yen
Encoding: 165 165 104
Width: 510
GlyphClass: 2
Flags: W
LayerCount: 2
Fore
SplineSet
292 300 m 1,0,-1
 217 300 l 1,1,-1
 217 375 l 1,2,-1
 292 375 l 1,3,-1
 292 300 l 1,0,-1
EndSplineSet
EndChar

StartChar: brokenbar
Encoding: 166 166 105
Width: 510
GlyphClass: 2
Flags: W
LayerCount: 2
Fore
SplineSet
292 300 m 1,0,-1
 217 300 l 1,1,-1
 217 375 l 1,2,-1
 292 375 l 1,3,-1
 292 300 l 1,0,-1
EndSplineSet
EndChar

StartChar: section
Encoding: 167 167 106
Width: 510
GlyphClass: 2
Flags: W
LayerCount: 2
Fore
SplineSet
292 300 m 1,0,-1
 217 300 l 1,1,-1
 217 375 l 1,2,-1
 292 375 l 1,3,-1
 292 300 l 1,0,-1
EndSplineSet
EndChar

StartChar: dieresis
Encoding: 168 168 107
Width: 510
GlyphClass: 2
Flags: W
LayerCount: 2
Fore
SplineSet
292 300 m 1,0,-1
 217 300 l 1,1,-1
 217 375 l 1,2,-1
 292 375 l 1,3,-1
 292 300 l 1,0,-1
EndSplineSet
EndChar

StartChar: ordfeminine
Encoding: 170 170 108
Width: 510
GlyphClass: 2
Flags: W
LayerCount: 2
Fore
SplineSet
292 300 m 1,0,-1
 217 300 l 1,1,-1
 217 375 l 1,2,-1
 292 375 l 1,3,-1
 292 300 l 1,0,-1
EndSplineSet
EndChar

StartChar: guillemotleft
Encoding: 171 171 109
Width: 510
GlyphClass: 2
Flags: W
LayerCount: 2
Fore
SplineSet
292 300 m 1,0,-1
 217 300 l 1,1,-1
 217 375 l 1,2,-1
 292 375 l 1,3,-1
 292 300 l 1,0,-1
EndSplineSet
EndChar

StartChar: logicalnot
Encoding: 172 172 110
Width: 510
GlyphClass: 2
Flags: W
LayerCount: 2
Fore
SplineSet
292 300 m 1,0,-1
 217 300 l 1,1,-1
 217 375 l 1,2,-1
 292 375 l 1,3,-1
 292 300 l 1,0,-1
EndSplineSet
EndChar

StartChar: minus
Encoding: 173 173 111
AltUni2: 002212.ffffffff.0
Width: 510
GlyphClass: 2
Flags: W
LayerCount: 2
Fore
SplineSet
435 240 m 1,0,-1
 75 240 l 1,1,-1
 75 315 l 1,2,-1
 435 315 l 1,3,-1
 435 240 l 1,0,-1
EndSplineSet
EndChar

StartChar: registered
Encoding: 174 174 112
Width: 510
GlyphClass: 2
Flags: W
LayerCount: 2
Fore
SplineSet
420 0 m 1,0,-1
 330 0 l 1,1,-1
 180 338 l 1,2,-1
 330 675 l 1,3,-1
 420 675 l 1,4,-1
 270 338 l 1,5,-1
 420 0 l 1,0,-1
240 0 m 1,6,-1
 150 0 l 1,7,-1
 0 338 l 1,8,-1
 150 675 l 1,9,-1
 240 675 l 1,10,-1
 90 338 l 1,11,-1
 240 0 l 1,6,-1
EndSplineSet
EndChar

StartChar: macron
Encoding: 175 175 113
AltUni2: 0002c9.ffffffff.0
Width: 510
GlyphClass: 2
Flags: W
LayerCount: 2
Fore
SplineSet
510 338 m 1,0,-1
 360 0 l 1,1,-1
 270 0 l 1,2,-1
 420 338 l 1,3,-1
 270 675 l 1,4,-1
 360 675 l 1,5,-1
 510 338 l 1,0,-1
330 338 m 1,6,-1
 180 0 l 1,7,-1
 90 0 l 1,8,-1
 240 338 l 1,9,-1
 90 675 l 1,10,-1
 180 675 l 1,11,-1
 330 338 l 1,6,-1
EndSplineSet
EndChar

StartChar: plusminus
Encoding: 177 177 114
Width: 510
GlyphClass: 2
Flags: W
LayerCount: 2
Fore
SplineSet
292 300 m 1,0,-1
 217 300 l 1,1,-1
 217 375 l 1,2,-1
 292 375 l 1,3,-1
 292 300 l 1,0,-1
EndSplineSet
EndChar

StartChar: twosuperior
Encoding: 178 178 115
Width: 510
GlyphClass: 2
Flags: W
LayerCount: 2
Fore
SplineSet
292 300 m 1,0,-1
 217 300 l 1,1,-1
 217 375 l 1,2,-1
 292 375 l 1,3,-1
 292 300 l 1,0,-1
EndSplineSet
EndChar

StartChar: threesuperior
Encoding: 179 179 116
Width: 510
GlyphClass: 2
Flags: W
LayerCount: 2
Fore
SplineSet
292 -220 m 1,0,-1
 217 -220 l 1,1,-1
 217 820 l 1,2,-1
 292 820 l 1,3,-1
 292 -220 l 1,0,-1
EndSplineSet
EndChar

StartChar: acute
Encoding: 180 180 117
Width: 510
GlyphClass: 2
Flags: W
LayerCount: 2
Fore
SplineSet
292 -240 m 1,0,-1
 217 -240 l 1,1,-1
 217 300 l 1,2,-1
 -20 300 l 1,3,-1
 -20 375 l 1,4,-1
 217 375 l 1,5,-1
 217 840 l 1,6,-1
 292 840 l 1,7,-1
 292 -240 l 1,0,-1
EndSplineSet
EndChar

StartChar: mu1
Encoding: 181 181 118
AltUni2: 0003bc.ffffffff.0
Width: 510
GlyphClass: 2
Flags: W
LayerCount: 2
Fore
SplineSet
292 -240 m 1,0,-1
 217 -240 l 1,1,-1
 217 225 l 1,2,-1
 -20 225 l 1,3,-1
 -20 300 l 1,4,-1
 217 300 l 1,5,-1
 217 375 l 1,6,-1
 -20 375 l 1,7,-1
 -20 450 l 1,8,-1
 217 450 l 1,9,-1
 217 840 l 1,10,-1
 292 840 l 1,11,-1
 292 -240 l 1,0,-1
EndSplineSet
EndChar

StartChar: paragraph
Encoding: 182 182 119
Width: 510
GlyphClass: 2
Flags: W
LayerCount: 2
Fore
SplineSet
367 -240 m 1,0,-1
 292 -240 l 1,1,-1
 292 840 l 1,2,-1
 367 840 l 1,3,-1
 367 -240 l 1,0,-1
217 -240 m 1,4,-1
 142 -240 l 1,5,-1
 142 300 l 1,6,-1
 -20 300 l 1,7,-1
 -20 375 l 1,8,-1
 142 375 l 1,9,-1
 142 840 l 1,10,-1
 217 840 l 1,11,-1
 217 -240 l 1,4,-1
EndSplineSet
EndChar

StartChar: periodcentered
Encoding: 183 183 120
AltUni2: 002219.ffffffff.0
Width: 510
GlyphClass: 2
Flags: W
LayerCount: 2
Fore
SplineSet
367 -240 m 1,0,-1
 292 -240 l 1,1,-1
 292 300 l 1,2,-1
 217 300 l 1,3,-1
 217 -240 l 1,4,-1
 142 -240 l 1,5,-1
 142 300 l 1,6,-1
 -20 300 l 1,7,-1
 -20 375 l 1,8,-1
 367 375 l 1,9,-1
 367 -240 l 1,0,-1
EndSplineSet
EndChar

StartChar: cedilla
Encoding: 184 184 121
Width: 510
GlyphClass: 2
Flags: W
LayerCount: 2
Fore
SplineSet
292 -240 m 1,0,-1
 217 -240 l 1,1,-1
 217 225 l 1,2,-1
 -20 225 l 1,3,-1
 -20 300 l 1,4,-1
 217 300 l 1,5,-1
 217 375 l 1,6,-1
 -20 375 l 1,7,-1
 -20 450 l 1,8,-1
 292 450 l 1,9,-1
 292 -240 l 1,0,-1
EndSplineSet
EndChar

StartChar: onesuperior
Encoding: 185 185 122
Width: 510
GlyphClass: 2
Flags: W
LayerCount: 2
Fore
SplineSet
217 375 m 1,0,-1
 -20 375 l 1,1,-1
 -20 450 l 1,2,-1
 142 450 l 1,3,-1
 142 840 l 1,4,-1
 217 840 l 1,5,-1
 217 375 l 1,0,-1
367 -240 m 1,6,-1
 292 -240 l 1,7,-1
 292 840 l 1,8,-1
 367 840 l 1,9,-1
 367 -240 l 1,6,-1
217 -240 m 1,10,-1
 142 -240 l 1,11,-1
 142 225 l 1,12,-1
 -20 225 l 1,13,-1
 -20 300 l 1,14,-1
 217 300 l 1,15,-1
 217 -240 l 1,10,-1
EndSplineSet
EndChar

StartChar: ordmasculine
Encoding: 186 186 123
Width: 510
GlyphClass: 2
Flags: W
LayerCount: 2
Fore
SplineSet
367 -240 m 1,0,-1
 292 -240 l 1,1,-1
 292 840 l 1,2,-1
 367 840 l 1,3,-1
 367 -240 l 1,0,-1
217 -240 m 1,4,-1
 142 -240 l 1,5,-1
 142 840 l 1,6,-1
 217 840 l 1,7,-1
 217 -240 l 1,4,-1
EndSplineSet
EndChar

StartChar: guillemotright
Encoding: 187 187 124
Width: 510
GlyphClass: 2
Flags: W
LayerCount: 2
Fore
SplineSet
367 -240 m 1,0,-1
 292 -240 l 1,1,-1
 292 375 l 1,2,-1
 -20 375 l 1,3,-1
 -20 450 l 1,4,-1
 367 450 l 1,5,-1
 367 -240 l 1,0,-1
217 -240 m 1,6,-1
 142 -240 l 1,7,-1
 142 225 l 1,8,-1
 -20 225 l 1,9,-1
 -20 300 l 1,10,-1
 217 300 l 1,11,-1
 217 -240 l 1,6,-1
EndSplineSet
EndChar

StartChar: onequarter
Encoding: 188 188 125
Width: 510
GlyphClass: 2
Flags: W
LayerCount: 2
Fore
SplineSet
217 375 m 1,0,-1
 -20 375 l 1,1,-1
 -20 450 l 1,2,-1
 142 450 l 1,3,-1
 142 840 l 1,4,-1
 217 840 l 1,5,-1
 217 375 l 1,0,-1
367 225 m 1,6,-1
 -20 225 l 1,7,-1
 -20 300 l 1,8,-1
 292 300 l 1,9,-1
 292 840 l 1,10,-1
 367 840 l 1,11,-1
 367 225 l 1,6,-1
EndSplineSet
EndChar

StartChar: onehalf
Encoding: 189 189 126
Width: 510
GlyphClass: 2
Flags: W
LayerCount: 2
Fore
SplineSet
367 300 m 1,0,-1
 -20 300 l 1,1,-1
 -20 375 l 1,2,-1
 142 375 l 1,3,-1
 142 840 l 1,4,-1
 217 840 l 1,5,-1
 217 375 l 1,6,-1
 292 375 l 1,7,-1
 292 840 l 1,8,-1
 367 840 l 1,9,-1
 367 300 l 1,0,-1
EndSplineSet
EndChar

StartChar: threequarters
Encoding: 190 190 127
Width: 510
GlyphClass: 2
Flags: W
LayerCount: 2
Fore
SplineSet
292 225 m 1,0,-1
 -20 225 l 1,1,-1
 -20 300 l 1,2,-1
 217 300 l 1,3,-1
 217 375 l 1,4,-1
 -20 375 l 1,5,-1
 -20 450 l 1,6,-1
 217 450 l 1,7,-1
 217 840 l 1,8,-1
 292 840 l 1,9,-1
 292 225 l 1,0,-1
EndSplineSet
EndChar

StartChar: questiondown
Encoding: 191 191 128
Width: 510
GlyphClass: 2
Flags: W
LayerCount: 2
Fore
SplineSet
292 -240 m 1,0,-1
 217 -240 l 1,1,-1
 217 300 l 1,2,-1
 -20 300 l 1,3,-1
 -20 375 l 1,4,-1
 292 375 l 1,5,-1
 292 -240 l 1,0,-1
EndSplineSet
EndChar

StartChar: Agrave
Encoding: 192 192 129
Width: 510
GlyphClass: 2
Flags: W
LayerCount: 2
Fore
SplineSet
530 300 m 1,0,-1
 217 300 l 1,1,-1
 217 840 l 1,2,-1
 292 840 l 1,3,-1
 292 375 l 1,4,-1
 530 375 l 1,5,-1
 530 300 l 1,0,-1
EndSplineSet
EndChar

StartChar: Aacute
Encoding: 193 193 130
Width: 510
GlyphClass: 2
Flags: W
LayerCount: 2
Fore
SplineSet
530 300 m 1,0,-1
 -20 300 l 1,1,-1
 -20 375 l 1,2,-1
 217 375 l 1,3,-1
 217 840 l 1,4,-1
 292 840 l 1,5,-1
 292 375 l 1,6,-1
 530 375 l 1,7,-1
 530 300 l 1,0,-1
EndSplineSet
EndChar

StartChar: Acircumflex
Encoding: 194 194 131
Width: 510
GlyphClass: 2
Flags: W
LayerCount: 2
Fore
SplineSet
530 300 m 1,0,-1
 292 300 l 1,1,-1
 292 -240 l 1,2,-1
 217 -240 l 1,3,-1
 217 300 l 1,4,-1
 -20 300 l 1,5,-1
 -20 375 l 1,6,-1
 530 375 l 1,7,-1
 530 300 l 1,0,-1
EndSplineSet
EndChar

StartChar: Atilde
Encoding: 195 195 132
Width: 510
GlyphClass: 2
Flags: W
LayerCount: 2
Fore
SplineSet
530 300 m 1,0,-1
 292 300 l 1,1,-1
 292 -240 l 1,2,-1
 217 -240 l 1,3,-1
 217 840 l 1,4,-1
 292 840 l 1,5,-1
 292 375 l 1,6,-1
 530 375 l 1,7,-1
 530 300 l 1,0,-1
EndSplineSet
EndChar

StartChar: Adieresis
Encoding: 196 196 133
Width: 510
GlyphClass: 2
Flags: W
LayerCount: 2
Fore
SplineSet
530 300 m 1,0,-1
 -20 300 l 1,1,-1
 -20 375 l 1,2,-1
 530 375 l 1,3,-1
 530 300 l 1,0,-1
EndSplineSet
EndChar

StartChar: Aring
Encoding: 197 197 134
Width: 510
GlyphClass: 2
Flags: W
LayerCount: 2
Fore
SplineSet
530 300 m 1,0,-1
 292 300 l 1,1,-1
 292 -240 l 1,2,-1
 217 -240 l 1,3,-1
 217 300 l 1,4,-1
 -20 300 l 1,5,-1
 -20 375 l 1,6,-1
 217 375 l 1,7,-1
 217 840 l 1,8,-1
 292 840 l 1,9,-1
 292 375 l 1,10,-1
 530 375 l 1,11,-1
 530 300 l 1,0,-1
EndSplineSet
EndChar

StartChar: AE
Encoding: 198 198 135
Width: 510
GlyphClass: 2
Flags: W
LayerCount: 2
Fore
SplineSet
530 225 m 1,0,-1
 292 225 l 1,1,-1
 292 -240 l 1,2,-1
 217 -240 l 1,3,-1
 217 840 l 1,4,-1
 292 840 l 1,5,-1
 292 450 l 1,6,-1
 530 450 l 1,7,-1
 530 375 l 1,8,-1
 292 375 l 1,9,-1
 292 300 l 1,10,-1
 530 300 l 1,11,-1
 530 225 l 1,0,-1
EndSplineSet
EndChar

StartChar: Ccedilla
Encoding: 199 199 136
Width: 510
GlyphClass: 2
Flags: W
LayerCount: 2
Fore
SplineSet
530 300 m 1,0,-1
 367 300 l 1,1,-1
 367 -240 l 1,2,-1
 292 -240 l 1,3,-1
 292 840 l 1,4,-1
 367 840 l 1,5,-1
 367 375 l 1,6,-1
 530 375 l 1,7,-1
 530 300 l 1,0,-1
217 -240 m 1,8,-1
 142 -240 l 1,9,-1
 142 840 l 1,10,-1
 217 840 l 1,11,-1
 217 -240 l 1,8,-1
EndSplineSet
EndChar

StartChar: Egrave
Encoding: 200 200 137
Width: 510
GlyphClass: 2
Flags: W
LayerCount: 2
Fore
SplineSet
530 375 m 1,0,-1
 292 375 l 1,1,-1
 292 840 l 1,2,-1
 367 840 l 1,3,-1
 367 450 l 1,4,-1
 530 450 l 1,5,-1
 530 375 l 1,0,-1
530 225 m 1,6,-1
 142 225 l 1,7,-1
 142 840 l 1,8,-1
 217 840 l 1,9,-1
 217 300 l 1,10,-1
 530 300 l 1,11,-1
 530 225 l 1,6,-1
EndSplineSet
EndChar

StartChar: Eacute
Encoding: 201 201 138
Width: 510
GlyphClass: 2
Flags: W
LayerCount: 2
Fore
SplineSet
530 375 m 1,0,-1
 217 375 l 1,1,-1
 217 -240 l 1,2,-1
 142 -240 l 1,3,-1
 142 450 l 1,4,-1
 530 450 l 1,5,-1
 530 375 l 1,0,-1
530 225 m 1,6,-1
 367 225 l 1,7,-1
 367 -240 l 1,8,-1
 292 -240 l 1,9,-1
 292 300 l 1,10,-1
 530 300 l 1,11,-1
 530 225 l 1,6,-1
EndSplineSet
EndChar

StartChar: Ecircumflex
Encoding: 202 202 139
Width: 510
GlyphClass: 2
Flags: W
LayerCount: 2
Fore
SplineSet
530 375 m 1,0,-1
 292 375 l 1,1,-1
 292 840 l 1,2,-1
 367 840 l 1,3,-1
 367 450 l 1,4,-1
 530 450 l 1,5,-1
 530 375 l 1,0,-1
217 375 m 1,6,-1
 -20 375 l 1,7,-1
 -20 450 l 1,8,-1
 142 450 l 1,9,-1
 142 840 l 1,10,-1
 217 840 l 1,11,-1
 217 375 l 1,6,-1
530 225 m 1,12,-1
 -20 225 l 1,13,-1
 -20 300 l 1,14,-1
 530 300 l 1,15,-1
 530 225 l 1,12,-1
EndSplineSet
EndChar

StartChar: Edieresis
Encoding: 203 203 140
Width: 510
GlyphClass: 2
Flags: W
LayerCount: 2
Fore
SplineSet
530 375 m 1,0,-1
 -20 375 l 1,1,-1
 -20 450 l 1,2,-1
 530 450 l 1,3,-1
 530 375 l 1,0,-1
530 225 m 1,4,-1
 367 225 l 1,5,-1
 367 -240 l 1,6,-1
 292 -240 l 1,7,-1
 292 300 l 1,8,-1
 530 300 l 1,9,-1
 530 225 l 1,4,-1
217 -240 m 1,10,-1
 142 -240 l 1,11,-1
 142 225 l 1,12,-1
 -20 225 l 1,13,-1
 -20 300 l 1,14,-1
 217 300 l 1,15,-1
 217 -240 l 1,10,-1
EndSplineSet
EndChar

StartChar: Igrave
Encoding: 204 204 141
Width: 510
GlyphClass: 2
Flags: W
LayerCount: 2
Fore
SplineSet
530 375 m 1,0,-1
 292 375 l 1,1,-1
 292 840 l 1,2,-1
 367 840 l 1,3,-1
 367 450 l 1,4,-1
 530 450 l 1,5,-1
 530 375 l 1,0,-1
217 -240 m 1,6,-1
 142 -240 l 1,7,-1
 142 840 l 1,8,-1
 217 840 l 1,9,-1
 217 -240 l 1,6,-1
530 225 m 1,10,-1
 367 225 l 1,11,-1
 367 -240 l 1,12,-1
 292 -240 l 1,13,-1
 292 300 l 1,14,-1
 530 300 l 1,15,-1
 530 225 l 1,10,-1
EndSplineSet
EndChar

StartChar: Iacute
Encoding: 205 205 142
Width: 510
GlyphClass: 2
Flags: W
LayerCount: 2
Fore
SplineSet
530 375 m 1,0,-1
 -20 375 l 1,1,-1
 -20 450 l 1,2,-1
 530 450 l 1,3,-1
 530 375 l 1,0,-1
530 225 m 1,4,-1
 -20 225 l 1,5,-1
 -20 300 l 1,6,-1
 530 300 l 1,7,-1
 530 225 l 1,4,-1
EndSplineSet
EndChar

StartChar: Icircumflex
Encoding: 206 206 143
Width: 510
GlyphClass: 2
Flags: W
LayerCount: 2
Fore
SplineSet
530 375 m 1,0,-1
 292 375 l 1,1,-1
 292 840 l 1,2,-1
 367 840 l 1,3,-1
 367 450 l 1,4,-1
 530 450 l 1,5,-1
 530 375 l 1,0,-1
217 375 m 1,6,-1
 -20 375 l 1,7,-1
 -20 450 l 1,8,-1
 142 450 l 1,9,-1
 142 840 l 1,10,-1
 217 840 l 1,11,-1
 217 375 l 1,6,-1
530 225 m 1,12,-1
 367 225 l 1,13,-1
 367 -240 l 1,14,-1
 292 -240 l 1,15,-1
 292 300 l 1,16,-1
 530 300 l 1,17,-1
 530 225 l 1,12,-1
217 -240 m 1,18,-1
 142 -240 l 1,19,-1
 142 225 l 1,20,-1
 -20 225 l 1,21,-1
 -20 300 l 1,22,-1
 217 300 l 1,23,-1
 217 -240 l 1,18,-1
EndSplineSet
EndChar

StartChar: Idieresis
Encoding: 207 207 144
Width: 510
GlyphClass: 2
Flags: W
LayerCount: 2
Fore
SplineSet
530 375 m 1,0,-1
 -20 375 l 1,1,-1
 -20 450 l 1,2,-1
 217 450 l 1,3,-1
 217 840 l 1,4,-1
 292 840 l 1,5,-1
 292 450 l 1,6,-1
 530 450 l 1,7,-1
 530 375 l 1,0,-1
530 225 m 1,8,-1
 -20 225 l 1,9,-1
 -20 300 l 1,10,-1
 530 300 l 1,11,-1
 530 225 l 1,8,-1
EndSplineSet
EndChar

StartChar: Eth
Encoding: 208 208 145
Width: 510
GlyphClass: 2
Flags: W
LayerCount: 2
Fore
SplineSet
530 300 m 1,0,-1
 -20 300 l 1,1,-1
 -20 375 l 1,2,-1
 142 375 l 1,3,-1
 142 840 l 1,4,-1
 217 840 l 1,5,-1
 217 375 l 1,6,-1
 292 375 l 1,7,-1
 292 840 l 1,8,-1
 367 840 l 1,9,-1
 367 375 l 1,10,-1
 530 375 l 1,11,-1
 530 300 l 1,0,-1
EndSplineSet
EndChar

StartChar: Ntilde
Encoding: 209 209 146
Width: 510
GlyphClass: 2
Flags: W
LayerCount: 2
Fore
SplineSet
530 375 m 1,0,-1
 -20 375 l 1,1,-1
 -20 450 l 1,2,-1
 530 450 l 1,3,-1
 530 375 l 1,0,-1
530 225 m 1,4,-1
 292 225 l 1,5,-1
 292 -240 l 1,6,-1
 217 -240 l 1,7,-1
 217 225 l 1,8,-1
 -20 225 l 1,9,-1
 -20 300 l 1,10,-1
 530 300 l 1,11,-1
 530 225 l 1,4,-1
EndSplineSet
EndChar

StartChar: Ograve
Encoding: 210 210 147
Width: 510
GlyphClass: 2
Flags: W
LayerCount: 2
Fore
SplineSet
530 300 m 1,0,-1
 367 300 l 1,1,-1
 367 -240 l 1,2,-1
 292 -240 l 1,3,-1
 292 300 l 1,4,-1
 217 300 l 1,5,-1
 217 -240 l 1,6,-1
 142 -240 l 1,7,-1
 142 300 l 1,8,-1
 -20 300 l 1,9,-1
 -20 375 l 1,10,-1
 530 375 l 1,11,-1
 530 300 l 1,0,-1
EndSplineSet
EndChar

StartChar: Oacute
Encoding: 211 211 148
Width: 510
GlyphClass: 2
Flags: W
LayerCount: 2
Fore
SplineSet
530 300 m 1,0,-1
 142 300 l 1,1,-1
 142 840 l 1,2,-1
 217 840 l 1,3,-1
 217 375 l 1,4,-1
 292 375 l 1,5,-1
 292 840 l 1,6,-1
 367 840 l 1,7,-1
 367 375 l 1,8,-1
 530 375 l 1,9,-1
 530 300 l 1,0,-1
EndSplineSet
EndChar

StartChar: Ocircumflex
Encoding: 212 212 149
Width: 510
GlyphClass: 2
Flags: W
LayerCount: 2
Fore
SplineSet
530 225 m 1,0,-1
 217 225 l 1,1,-1
 217 840 l 1,2,-1
 292 840 l 1,3,-1
 292 450 l 1,4,-1
 530 450 l 1,5,-1
 530 375 l 1,6,-1
 292 375 l 1,7,-1
 292 300 l 1,8,-1
 530 300 l 1,9,-1
 530 225 l 1,0,-1
EndSplineSet
EndChar

StartChar: Otilde
Encoding: 213 213 150
Width: 510
GlyphClass: 2
Flags: W
LayerCount: 2
Fore
SplineSet
530 225 m 1,0,-1
 292 225 l 1,1,-1
 292 -240 l 1,2,-1
 217 -240 l 1,3,-1
 217 450 l 1,4,-1
 530 450 l 1,5,-1
 530 375 l 1,6,-1
 292 375 l 1,7,-1
 292 300 l 1,8,-1
 530 300 l 1,9,-1
 530 225 l 1,0,-1
EndSplineSet
EndChar

StartChar: Odieresis
Encoding: 214 214 151
Width: 510
GlyphClass: 2
Flags: W
LayerCount: 2
Fore
SplineSet
530 300 m 1,0,-1
 367 300 l 1,1,-1
 367 -240 l 1,2,-1
 292 -240 l 1,3,-1
 292 300 l 1,4,-1
 217 300 l 1,5,-1
 217 -240 l 1,6,-1
 142 -240 l 1,7,-1
 142 375 l 1,8,-1
 530 375 l 1,9,-1
 530 300 l 1,0,-1
EndSplineSet
EndChar

StartChar: multiply
Encoding: 215 215 152
Width: 510
GlyphClass: 2
Flags: W
LayerCount: 2
Fore
SplineSet
530 300 m 1,0,-1
 367 300 l 1,1,-1
 367 -240 l 1,2,-1
 292 -240 l 1,3,-1
 292 300 l 1,4,-1
 217 300 l 1,5,-1
 217 -240 l 1,6,-1
 142 -240 l 1,7,-1
 142 300 l 1,8,-1
 -20 300 l 1,9,-1
 -20 375 l 1,10,-1
 142 375 l 1,11,-1
 142 840 l 1,12,-1
 217 840 l 1,13,-1
 217 375 l 1,14,-1
 292 375 l 1,15,-1
 292 840 l 1,16,-1
 367 840 l 1,17,-1
 367 375 l 1,18,-1
 530 375 l 1,19,-1
 530 300 l 1,0,-1
EndSplineSet
EndChar

StartChar: Oslash
Encoding: 216 216 153
Width: 510
GlyphClass: 2
Flags: W
LayerCount: 2
Fore
SplineSet
530 225 m 1,0,-1
 292 225 l 1,1,-1
 292 -240 l 1,2,-1
 217 -240 l 1,3,-1
 217 225 l 1,4,-1
 -20 225 l 1,5,-1
 -20 300 l 1,6,-1
 217 300 l 1,7,-1
 217 375 l 1,8,-1
 -20 375 l 1,9,-1
 -20 450 l 1,10,-1
 217 450 l 1,11,-1
 217 840 l 1,12,-1
 292 840 l 1,13,-1
 292 450 l 1,14,-1
 530 450 l 1,15,-1
 530 375 l 1,16,-1
 292 375 l 1,17,-1
 292 300 l 1,18,-1
 530 300 l 1,19,-1
 530 225 l 1,0,-1
EndSplineSet
EndChar

StartChar: Ugrave
Encoding: 217 217 154
Width: 510
GlyphClass: 2
Flags: W
LayerCount: 2
Fore
SplineSet
292 300 m 1,0,-1
 -20 300 l 1,1,-1
 -20 375 l 1,2,-1
 217 375 l 1,3,-1
 217 840 l 1,4,-1
 292 840 l 1,5,-1
 292 300 l 1,0,-1
EndSplineSet
EndChar

StartChar: Uacute
Encoding: 218 218 155
Width: 510
GlyphClass: 2
Flags: W
LayerCount: 2
Fore
SplineSet
530 300 m 1,0,-1
 292 300 l 1,1,-1
 292 -240 l 1,2,-1
 217 -240 l 1,3,-1
 217 375 l 1,4,-1
 530 375 l 1,5,-1
 530 300 l 1,0,-1
EndSplineSet
EndChar

StartChar: Ucircumflex
Encoding: 219 219 156
Width: 510
GlyphClass: 2
Flags: W
LayerCount: 2
Fore
SplineSet
292 300 m 1,0,-1
 217 300 l 1,1,-1
 217 375 l 1,2,-1
 292 375 l 1,3,-1
 292 300 l 1,0,-1
EndSplineSet
EndChar

StartChar: Udieresis
Encoding: 220 220 157
Width: 510
GlyphClass: 2
Flags: W
LayerCount: 2
Fore
SplineSet
292 300 m 1,0,-1
 217 300 l 1,1,-1
 217 375 l 1,2,-1
 292 375 l 1,3,-1
 292 300 l 1,0,-1
EndSplineSet
EndChar

StartChar: Yacute
Encoding: 221 221 158
Width: 510
GlyphClass: 2
Flags: W
LayerCount: 2
Fore
SplineSet
292 300 m 1,0,-1
 217 300 l 1,1,-1
 217 375 l 1,2,-1
 292 375 l 1,3,-1
 292 300 l 1,0,-1
EndSplineSet
EndChar

StartChar: Thorn
Encoding: 222 222 159
Width: 510
GlyphClass: 2
Flags: W
LayerCount: 2
Fore
SplineSet
292 300 m 1,0,-1
 217 300 l 1,1,-1
 217 375 l 1,2,-1
 292 375 l 1,3,-1
 292 300 l 1,0,-1
EndSplineSet
EndChar

StartChar: germandbls
Encoding: 223 223 160
Width: 510
GlyphClass: 2
Flags: W
LayerCount: 2
Fore
SplineSet
292 300 m 1,0,-1
 217 300 l 1,1,-1
 217 375 l 1,2,-1
 292 375 l 1,3,-1
 292 300 l 1,0,-1
EndSplineSet
EndChar

StartChar: agrave
Encoding: 224 224 161
Width: 510
GlyphClass: 2
Flags: W
LayerCount: 2
Fore
SplineSet
292 300 m 1,0,-1
 217 300 l 1,1,-1
 217 375 l 1,2,-1
 292 375 l 1,3,-1
 292 300 l 1,0,-1
EndSplineSet
EndChar

StartChar: aacute
Encoding: 225 225 162
Width: 510
GlyphClass: 2
Flags: W
LayerCount: 2
Fore
SplineSet
292 300 m 1,0,-1
 217 300 l 1,1,-1
 217 375 l 1,2,-1
 292 375 l 1,3,-1
 292 300 l 1,0,-1
EndSplineSet
EndChar

StartChar: acircumflex
Encoding: 226 226 163
Width: 510
GlyphClass: 2
Flags: W
LayerCount: 2
Fore
SplineSet
292 300 m 1,0,-1
 217 300 l 1,1,-1
 217 375 l 1,2,-1
 292 375 l 1,3,-1
 292 300 l 1,0,-1
EndSplineSet
EndChar

StartChar: atilde
Encoding: 227 227 164
Width: 510
GlyphClass: 2
Flags: W
LayerCount: 2
Fore
SplineSet
292 300 m 1,0,-1
 217 300 l 1,1,-1
 217 375 l 1,2,-1
 292 375 l 1,3,-1
 292 300 l 1,0,-1
EndSplineSet
EndChar

StartChar: adieresis
Encoding: 228 228 165
Width: 510
GlyphClass: 2
Flags: W
LayerCount: 2
Fore
SplineSet
292 300 m 1,0,-1
 217 300 l 1,1,-1
 217 375 l 1,2,-1
 292 375 l 1,3,-1
 292 300 l 1,0,-1
EndSplineSet
EndChar

StartChar: aring
Encoding: 229 229 166
Width: 510
GlyphClass: 2
Flags: W
LayerCount: 2
Fore
SplineSet
292 300 m 1,0,-1
 217 300 l 1,1,-1
 217 375 l 1,2,-1
 292 375 l 1,3,-1
 292 300 l 1,0,-1
EndSplineSet
EndChar

StartChar: ae
Encoding: 230 230 167
Width: 510
GlyphClass: 2
Flags: W
LayerCount: 2
Fore
SplineSet
292 300 m 1,0,-1
 217 300 l 1,1,-1
 217 375 l 1,2,-1
 292 375 l 1,3,-1
 292 300 l 1,0,-1
EndSplineSet
EndChar

StartChar: ccedilla
Encoding: 231 231 168
Width: 510
GlyphClass: 2
Flags: W
LayerCount: 2
Fore
SplineSet
292 300 m 1,0,-1
 217 300 l 1,1,-1
 217 375 l 1,2,-1
 292 375 l 1,3,-1
 292 300 l 1,0,-1
EndSplineSet
EndChar

StartChar: egrave
Encoding: 232 232 169
Width: 510
GlyphClass: 2
Flags: W
LayerCount: 2
Fore
SplineSet
292 300 m 1,0,-1
 217 300 l 1,1,-1
 217 375 l 1,2,-1
 292 375 l 1,3,-1
 292 300 l 1,0,-1
EndSplineSet
EndChar

StartChar: eacute
Encoding: 233 233 170
Width: 510
GlyphClass: 2
Flags: W
LayerCount: 2
Fore
SplineSet
292 300 m 1,0,-1
 217 300 l 1,1,-1
 217 375 l 1,2,-1
 292 375 l 1,3,-1
 292 300 l 1,0,-1
EndSplineSet
EndChar

StartChar: ecircumflex
Encoding: 234 234 171
Width: 510
GlyphClass: 2
Flags: W
LayerCount: 2
Fore
SplineSet
292 300 m 1,0,-1
 217 300 l 1,1,-1
 217 375 l 1,2,-1
 292 375 l 1,3,-1
 292 300 l 1,0,-1
EndSplineSet
EndChar

StartChar: edieresis
Encoding: 235 235 172
Width: 510
GlyphClass: 2
Flags: W
LayerCount: 2
Fore
SplineSet
220 472 m 1,0,-1
 60 472 l 1,1,-1
 60 522 l 1,2,3
 165 660 165 660 165 687 c 0,4,5
 165 709 165 709 144 709 c 0,6,7
 128 709 128 709 118 693 c 128,-1,8
 108 677 108 677 108 660 c 1,9,-1
 60 660 l 1,10,11
 60 703 60 703 80 733 c 0,12,13
 103 768 103 768 142 768 c 0,14,15
 175 768 175 768 197.5 744 c 128,-1,16
 220 720 220 720 220 686 c 0,17,18
 220 649 220 649 122 522 c 1,19,-1
 220 522 l 1,20,-1
 220 472 l 1,0,-1
EndSplineSet
EndChar

StartChar: igrave
Encoding: 236 236 173
Width: 510
GlyphClass: 2
Flags: W
LayerCount: 2
Fore
SplineSet
222 574 m 0,0,1
 222 470 222 470 60 470 c 1,2,-1
 60 522 l 1,3,4
 168 522 168 522 168 574 c 0,5,6
 168 600 168 600 140 608 c 0,7,8
 126 612 126 612 90 612 c 1,9,-1
 90 655 l 1,10,-1
 135 715 l 1,11,-1
 60 715 l 1,12,-1
 60 760 l 1,13,-1
 216 760 l 1,14,-1
 216 715 l 1,15,-1
 165 658 l 1,16,17
 222 629 222 629 222 574 c 0,0,1
EndSplineSet
EndChar

StartChar: iacute
Encoding: 237 237 174
Width: 510
GlyphClass: 2
Flags: W
LayerCount: 2
Fore
SplineSet
500 469 m 0,0,1
 500 455 500 455 475 428 c 0,2,3
 456 410 456 410 438 392 c 1,4,5
 490 330 490 330 490 249 c 0,6,7
 490 152 490 152 420 83 c 128,-1,8
 350 14 350 14 254 14 c 0,9,10
 190 14 190 14 117 64 c 1,11,12
 99 44 99 44 81 25 c 0,13,14
 52 -3 52 -3 38 -3 c 0,15,16
 7 -3 7 -3 7 29 c 0,17,18
 7 43 7 43 33 70 c 0,19,20
 51 88 51 88 70 106 c 1,21,22
 17 168 17 168 17 250 c 0,23,24
 17 346 17 346 87 411.5 c 128,-1,25
 157 477 157 477 254 477 c 0,26,27
 330 477 330 477 391 435 c 1,28,29
 409 454 409 454 427 474 c 0,30,31
 454 501 454 501 469 501 c 0,32,33
 500 501 500 501 500 469 c 0,0,1
427 249 m 0,34,35
 427 304 427 304 393 347 c 1,36,-1
 162 110 l 1,37,38
 203 84 203 84 254 84 c 0,39,40
 325 84 325 84 376 131.5 c 128,-1,41
 427 179 427 179 427 249 c 0,34,35
346 389 m 1,42,43
 304 414 304 414 254 414 c 0,44,45
 183 414 183 414 132 366.5 c 128,-1,46
 81 319 81 319 81 249 c 0,47,48
 81 196 81 196 115 152 c 1,49,-1
 346 389 l 1,42,43
EndSplineSet
EndChar

StartChar: icircumflex
Encoding: 238 238 175
Width: 510
GlyphClass: 2
Flags: W
LayerCount: 2
Fore
SplineSet
279 575 m 1,0,-1
 204 575 l 1,1,-1
 204 675 l 1,2,-1
 279 675 l 1,3,-1
 279 575 l 1,0,-1
435 185 m 1,4,5
 394 0 394 0 241 0 c 0,6,7
 162 0 162 0 111.5 47 c 128,-1,8
 61 94 61 94 61 169 c 0,9,10
 61 235 61 235 89 274 c 0,11,12
 99 289 99 289 161 344 c 0,13,14
 207 385 207 385 207 435 c 0,15,16
 207 443 207 443 205.5 466.5 c 128,-1,17
 204 490 204 490 204 506 c 1,18,-1
 279 506 l 1,19,20
 279 413 279 413 277 398 c 0,21,22
 267 344 267 344 222 301 c 0,23,24
 193 274 193 274 165 247 c 0,25,26
 136 214 136 214 136 169 c 0,27,28
 136 75 136 75 241 75 c 0,29,30
 333 75 333 75 370 211 c 1,31,-1
 435 185 l 1,4,5
EndSplineSet
EndChar

StartChar: idieresis
Encoding: 239 239 176
Width: 510
GlyphClass: 2
Flags: W
LayerCount: 2
Fore
SplineSet
292 300 m 1,0,-1
 217 300 l 1,1,-1
 217 375 l 1,2,-1
 292 375 l 1,3,-1
 292 300 l 1,0,-1
EndSplineSet
EndChar

StartChar: eth
Encoding: 240 240 177
Width: 510
GlyphClass: 2
Flags: W
LayerCount: 2
Fore
SplineSet
292 300 m 1,0,-1
 217 300 l 1,1,-1
 217 375 l 1,2,-1
 292 375 l 1,3,-1
 292 300 l 1,0,-1
EndSplineSet
EndChar

StartChar: ntilde
Encoding: 241 241 178
Width: 510
GlyphClass: 2
Flags: W
LayerCount: 2
Fore
SplineSet
292 300 m 1,0,-1
 217 300 l 1,1,-1
 217 375 l 1,2,-1
 292 375 l 1,3,-1
 292 300 l 1,0,-1
EndSplineSet
EndChar

StartChar: ograve
Encoding: 242 242 179
Width: 510
GlyphClass: 2
Flags: W
LayerCount: 2
Fore
SplineSet
466 339 m 0,0,1
 466 224 466 224 419 141 c 0,2,3
 361 39 361 39 256 39 c 0,4,5
 149 39 149 39 92 140 c 0,6,7
 47 221 47 221 47 337 c 256,8,9
 47 453 47 453 93 534 c 0,10,11
 149 634 149 634 256 634 c 0,12,13
 364 634 364 634 420 536 c 0,14,15
 466 456 466 456 466 339 c 0,0,1
407 339 m 0,16,17
 407 425 407 425 374 491 c 0,18,19
 332 575 332 575 255 575 c 0,20,21
 174 575 174 575 132 493 c 0,22,23
 98 427 98 427 98 339 c 0,24,25
 98 252 98 252 133 182 c 0,26,27
 176 94 176 94 255 94 c 0,28,29
 329 94 329 94 372 183 c 0,30,31
 407 255 407 255 407 339 c 0,16,17
360 369 m 1,32,-1
 307 369 l 1,33,34
 305 404 305 404 298 419 c 0,35,36
 287 444 287 444 257 444 c 0,37,38
 219 444 219 444 208 406 c 0,39,40
 202 387 202 387 202 338 c 0,41,42
 202 287 202 287 208 268 c 0,43,44
 219 229 219 229 256 229 c 0,45,46
 304 229 304 229 307 302 c 1,47,-1
 359 302 l 1,48,49
 359 246 359 246 336 210 c 0,50,51
 309 167 309 167 255 167 c 0,52,53
 198 167 198 167 171 227 c 0,54,55
 151 272 151 272 151 339 c 0,56,57
 151 417 151 417 166 452 c 0,58,59
 189 506 189 506 256 506 c 0,60,61
 361 506 361 506 360 369 c 1,32,-1
EndSplineSet
EndChar

StartChar: oacute
Encoding: 243 243 180
Width: 510
GlyphClass: 2
Flags: W
LayerCount: 2
Fore
SplineSet
467 337 m 0,0,1
 467 223 467 223 419 139 c 0,2,3
 361 36 361 36 255 36 c 0,4,5
 148 36 148 36 90 138 c 0,6,7
 42 222 42 222 42 338 c 0,8,9
 42 452 42 452 90 534 c 0,10,11
 148 631 148 631 255 631 c 0,12,13
 363 631 363 631 420 534 c 0,14,15
 467 454 467 454 467 337 c 0,0,1
417 338 m 0,16,17
 417 422 417 422 380 491 c 0,18,19
 335 574 335 574 257 574 c 0,20,21
 176 574 176 574 131 493 c 0,22,23
 94 426 94 426 94 338 c 0,24,25
 94 251 94 251 131 178 c 0,26,27
 176 88 176 88 255 88 c 0,28,29
 330 88 330 88 377 180 c 0,30,31
 417 256 417 256 417 338 c 0,16,17
350 188 m 1,32,-1
 305 169 l 1,33,-1
 218 302 l 1,34,-1
 218 169 l 1,35,-1
 170 169 l 1,36,-1
 170 508 l 1,37,38
 257 508 257 508 281 500 c 0,39,40
 335 481 335 481 335 411 c 0,41,42
 335 347 335 347 286 317 c 1,43,-1
 350 188 l 1,32,-1
283 410 m 0,44,45
 283 440 283 440 263 449 c 0,46,47
 253 454 253 454 218 454 c 1,48,-1
 218 365 l 1,49,50
 259 365 259 365 267 370 c 0,51,52
 283 377 283 377 283 410 c 0,44,45
EndSplineSet
EndChar

StartChar: ocircumflex
Encoding: 244 244 181
Width: 510
GlyphClass: 2
Flags: W
LayerCount: 2
Fore
SplineSet
460 0 m 1,0,-1
 385 0 l 1,1,-1
 385 450 l 1,2,-1
 287 260 l 1,3,-1
 222 260 l 1,4,-1
 125 450 l 1,5,-1
 125 0 l 1,6,-1
 50 0 l 1,7,-1
 50 675 l 1,8,-1
 125 675 l 1,9,-1
 255 375 l 1,10,-1
 385 675 l 1,11,-1
 460 675 l 1,12,-1
 460 0 l 1,0,-1
EndSplineSet
EndChar

StartChar: otilde
Encoding: 245 245 182
Width: 510
GlyphClass: 2
Flags: W
LayerCount: 2
Fore
SplineSet
292 300 m 1,0,-1
 217 300 l 1,1,-1
 217 375 l 1,2,-1
 292 375 l 1,3,-1
 292 300 l 1,0,-1
EndSplineSet
EndChar

StartChar: odieresis
Encoding: 246 246 183
Width: 510
GlyphClass: 2
Flags: W
LayerCount: 2
Fore
SplineSet
292 300 m 1,0,-1
 217 300 l 1,1,-1
 217 375 l 1,2,-1
 292 375 l 1,3,-1
 292 300 l 1,0,-1
EndSplineSet
EndChar

StartChar: divide
Encoding: 247 247 184
Width: 510
GlyphClass: 2
Flags: W
LayerCount: 2
Fore
SplineSet
292 300 m 1,0,-1
 217 300 l 1,1,-1
 217 375 l 1,2,-1
 292 375 l 1,3,-1
 292 300 l 1,0,-1
EndSplineSet
EndChar

StartChar: oslash
Encoding: 248 248 185
Width: 510
GlyphClass: 2
Flags: W
LayerCount: 2
Fore
SplineSet
292 300 m 1,0,-1
 217 300 l 1,1,-1
 217 375 l 1,2,-1
 292 375 l 1,3,-1
 292 300 l 1,0,-1
EndSplineSet
EndChar

StartChar: ugrave
Encoding: 249 249 186
Width: 510
GlyphClass: 2
Flags: W
LayerCount: 2
Fore
SplineSet
292 300 m 1,0,-1
 217 300 l 1,1,-1
 217 375 l 1,2,-1
 292 375 l 1,3,-1
 292 300 l 1,0,-1
EndSplineSet
EndChar

StartChar: uacute
Encoding: 250 250 187
Width: 510
GlyphClass: 2
Flags: W
LayerCount: 2
Fore
SplineSet
292 300 m 1,0,-1
 217 300 l 1,1,-1
 217 375 l 1,2,-1
 292 375 l 1,3,-1
 292 300 l 1,0,-1
EndSplineSet
EndChar

StartChar: ucircumflex
Encoding: 251 251 188
Width: 510
GlyphClass: 2
Flags: W
LayerCount: 2
Fore
SplineSet
292 300 m 1,0,-1
 217 300 l 1,1,-1
 217 375 l 1,2,-1
 292 375 l 1,3,-1
 292 300 l 1,0,-1
EndSplineSet
EndChar

StartChar: udieresis
Encoding: 252 252 189
Width: 510
GlyphClass: 2
Flags: W
LayerCount: 2
Fore
SplineSet
292 300 m 1,0,-1
 217 300 l 1,1,-1
 217 375 l 1,2,-1
 292 375 l 1,3,-1
 292 300 l 1,0,-1
EndSplineSet
EndChar

StartChar: yacute
Encoding: 253 253 190
Width: 510
GlyphClass: 2
Flags: W
LayerCount: 2
Fore
SplineSet
292 300 m 1,0,-1
 217 300 l 1,1,-1
 217 375 l 1,2,-1
 292 375 l 1,3,-1
 292 300 l 1,0,-1
EndSplineSet
EndChar

StartChar: thorn
Encoding: 254 254 191
Width: 510
GlyphClass: 2
Flags: W
LayerCount: 2
Fore
SplineSet
292 300 m 1,0,-1
 217 300 l 1,1,-1
 217 375 l 1,2,-1
 292 375 l 1,3,-1
 292 300 l 1,0,-1
EndSplineSet
EndChar

StartChar: ydieresis
Encoding: 255 255 192
Width: 510
GlyphClass: 2
Flags: W
LayerCount: 2
Fore
SplineSet
292 300 m 1,0,-1
 217 300 l 1,1,-1
 217 375 l 1,2,-1
 292 375 l 1,3,-1
 292 300 l 1,0,-1
EndSplineSet
EndChar

StartChar: OE
Encoding: 338 338 193
Width: 510
GlyphClass: 2
Flags: W
LayerCount: 2
Fore
SplineSet
292 300 m 1,0,-1
 217 300 l 1,1,-1
 217 375 l 1,2,-1
 292 375 l 1,3,-1
 292 300 l 1,0,-1
EndSplineSet
EndChar

StartChar: oe
Encoding: 339 339 194
Width: 510
GlyphClass: 2
Flags: W
LayerCount: 2
Fore
SplineSet
292 300 m 1,0,-1
 217 300 l 1,1,-1
 217 375 l 1,2,-1
 292 375 l 1,3,-1
 292 300 l 1,0,-1
EndSplineSet
EndChar

StartChar: Scaron
Encoding: 352 352 195
Width: 510
GlyphClass: 2
Flags: W
LayerCount: 2
Fore
SplineSet
292 300 m 1,0,-1
 217 300 l 1,1,-1
 217 375 l 1,2,-1
 292 375 l 1,3,-1
 292 300 l 1,0,-1
EndSplineSet
EndChar

StartChar: scaron
Encoding: 353 353 196
Width: 510
GlyphClass: 2
Flags: W
LayerCount: 2
Fore
SplineSet
292 300 m 1,0,-1
 217 300 l 1,1,-1
 217 375 l 1,2,-1
 292 375 l 1,3,-1
 292 300 l 1,0,-1
EndSplineSet
EndChar

StartChar: Ydieresis
Encoding: 376 376 197
Width: 510
GlyphClass: 2
Flags: W
LayerCount: 2
Fore
SplineSet
519 584 m 0,0,1
 519 553 519 553 488 553 c 0,2,3
 478 553 478 553 458.5 559 c 128,-1,4
 439 565 439 565 428 565 c 0,5,6
 384 565 384 565 358 536 c 128,-1,7
 332 507 332 507 332 462 c 2,8,-1
 332 389 l 1,9,-1
 413 389 l 2,10,11
 450 389 450 389 450 357 c 256,12,13
 450 325 450 325 413 325 c 2,14,-1
 332 325 l 1,15,-1
 332 66 l 2,16,17
 332 1 332 1 288.5 -46.5 c 128,-1,18
 245 -94 245 -94 180 -94 c 0,19,20
 149 -94 149 -94 123 -85 c 0,21,22
 86 -73 86 -73 86 -48 c 0,23,24
 86 -17 86 -17 116 -17 c 0,25,26
 126 -17 126 -17 148.5 -23.5 c 128,-1,27
 171 -30 171 -30 183 -30 c 0,28,29
 222 -30 222 -30 247 2 c 0,30,31
 269 31 269 31 269 72 c 2,32,-1
 269 325 l 1,33,-1
 189 325 l 2,34,35
 151 325 151 325 151 357 c 256,36,37
 151 389 151 389 189 389 c 2,38,-1
 269 389 l 1,39,-1
 269 462 l 2,40,41
 269 530 269 530 313.5 579 c 128,-1,42
 358 628 358 628 425 628 c 0,43,44
 519 628 519 628 519 584 c 0,0,1
EndSplineSet
EndChar

StartChar: florin
Encoding: 402 402 198
Width: 510
GlyphClass: 2
Flags: W
LayerCount: 2
Fore
SplineSet
292 300 m 1,0,-1
 217 300 l 1,1,-1
 217 375 l 1,2,-1
 292 375 l 1,3,-1
 292 300 l 1,0,-1
EndSplineSet
EndChar

StartChar: circumflex
Encoding: 710 710 199
Width: 510
GlyphClass: 2
Flags: W
LayerCount: 2
Fore
SplineSet
435 506 m 1,0,-1
 255 600 l 1,1,-1
 75 506 l 1,2,-1
 75 581 l 1,3,-1
 255 675 l 1,4,-1
 435 581 l 1,5,-1
 435 506 l 1,0,-1
EndSplineSet
EndChar

StartChar: tilde
Encoding: 732 732 200
Width: 510
GlyphClass: 2
Flags: W
LayerCount: 2
Fore
SplineSet
435 645 m 1,0,1
 417 606 417 606 391 574 c 0,2,3
 357 530 357 530 330 530 c 0,4,5
 292 530 292 530 247 565 c 128,-1,6
 202 600 202 600 180 600 c 0,7,8
 148 600 148 600 130 565 c 0,9,10
 122 551 122 551 110 506 c 1,11,-1
 75 536 l 1,12,13
 88 583 88 583 114 622 c 0,14,15
 147 675 147 675 180 675 c 0,16,17
 203 675 203 675 249 635.5 c 128,-1,18
 295 596 295 596 330 596 c 0,19,20
 343 596 343 596 359 617 c 0,21,22
 379 646 379 646 400 675 c 1,23,-1
 435 645 l 1,0,1
EndSplineSet
EndChar

StartChar: uni2011
Encoding: 8209 8209 201
Width: 510
GlyphClass: 2
Flags: W
LayerCount: 2
Fore
SplineSet
435 300 m 1,0,-1
 75 300 l 1,1,-1
 75 375 l 1,2,-1
 435 375 l 1,3,-1
 435 300 l 1,0,-1
EndSplineSet
EndChar

StartChar: figuredash
Encoding: 8210 8210 202
Width: 510
GlyphClass: 2
Flags: W
LayerCount: 2
Fore
SplineSet
435 300 m 1,0,-1
 75 300 l 1,1,-1
 75 375 l 1,2,-1
 435 375 l 1,3,-1
 435 300 l 1,0,-1
EndSplineSet
EndChar

StartChar: endash
Encoding: 8211 8211 203
Width: 510
GlyphClass: 2
Flags: W
LayerCount: 2
Fore
SplineSet
435 300 m 1,0,-1
 75 300 l 1,1,-1
 75 375 l 1,2,-1
 435 375 l 1,3,-1
 435 300 l 1,0,-1
EndSplineSet
EndChar

StartChar: emdash
Encoding: 8212 8212 204
Width: 510
GlyphClass: 2
Flags: W
LayerCount: 2
Fore
SplineSet
435 300 m 1,0,-1
 75 300 l 1,1,-1
 75 375 l 1,2,-1
 435 375 l 1,3,-1
 435 300 l 1,0,-1
EndSplineSet
EndChar

StartChar: quoteleft
Encoding: 8216 8216 205
Width: 510
GlyphClass: 2
Flags: W
LayerCount: 2
Fore
SplineSet
292 550 m 1,0,-1
 217 550 l 1,1,-1
 217 800 l 1,2,-1
 292 800 l 1,3,-1
 292 550 l 1,0,-1
EndSplineSet
EndChar

StartChar: quoteright
Encoding: 8217 8217 206
Width: 510
GlyphClass: 2
Flags: W
LayerCount: 2
Fore
SplineSet
292 550 m 1,0,-1
 217 550 l 1,1,-1
 217 800 l 1,2,-1
 292 800 l 1,3,-1
 292 550 l 1,0,-1
EndSplineSet
EndChar

StartChar: quotesinglbase
Encoding: 8218 8218 207
Width: 510
GlyphClass: 2
Flags: W
LayerCount: 2
Fore
SplineSet
292 300 m 1,0,-1
 217 300 l 1,1,-1
 217 375 l 1,2,-1
 292 375 l 1,3,-1
 292 300 l 1,0,-1
EndSplineSet
EndChar

StartChar: quotedblleft
Encoding: 8220 8220 208
Width: 510
GlyphClass: 2
Flags: W
LayerCount: 2
Fore
SplineSet
387 550 m 1,0,-1
 312 550 l 1,1,-1
 312 800 l 1,2,-1
 387 800 l 1,3,-1
 387 550 l 1,0,-1
197 550 m 1,4,-1
 122 550 l 1,5,-1
 122 800 l 1,6,-1
 197 800 l 1,7,-1
 197 550 l 1,4,-1
EndSplineSet
EndChar

StartChar: quotedblright
Encoding: 8221 8221 209
Width: 510
GlyphClass: 2
Flags: W
LayerCount: 2
Fore
SplineSet
387 550 m 1,0,-1
 312 550 l 1,1,-1
 312 800 l 1,2,-1
 387 800 l 1,3,-1
 387 550 l 1,0,-1
197 550 m 1,4,-1
 122 550 l 1,5,-1
 122 800 l 1,6,-1
 197 800 l 1,7,-1
 197 550 l 1,4,-1
EndSplineSet
EndChar

StartChar: quotedblbase
Encoding: 8222 8222 210
Width: 510
GlyphClass: 2
Flags: W
LayerCount: 2
Fore
SplineSet
292 300 m 1,0,-1
 217 300 l 1,1,-1
 217 375 l 1,2,-1
 292 375 l 1,3,-1
 292 300 l 1,0,-1
EndSplineSet
EndChar

StartChar: dagger
Encoding: 8224 8224 211
Width: 510
GlyphClass: 2
Flags: W
LayerCount: 2
Fore
SplineSet
292 300 m 1,0,-1
 217 300 l 1,1,-1
 217 375 l 1,2,-1
 292 375 l 1,3,-1
 292 300 l 1,0,-1
EndSplineSet
EndChar

StartChar: daggerdbl
Encoding: 8225 8225 212
Width: 510
GlyphClass: 2
Flags: W
LayerCount: 2
Fore
SplineSet
292 300 m 1,0,-1
 217 300 l 1,1,-1
 217 375 l 1,2,-1
 292 375 l 1,3,-1
 292 300 l 1,0,-1
EndSplineSet
EndChar

StartChar: bullet
Encoding: 8226 8226 213
Width: 510
GlyphClass: 2
Flags: W
LayerCount: 2
Fore
SplineSet
330 338 m 256,0,1
 330 310 330 310 306.5 286.5 c 128,-1,2
 283 263 283 263 255 263 c 256,3,4
 227 263 227 263 203.5 286.5 c 128,-1,5
 180 310 180 310 180 338 c 256,6,7
 180 366 180 366 203.5 389.5 c 128,-1,8
 227 413 227 413 255 413 c 256,9,10
 283 413 283 413 306.5 389.5 c 128,-1,11
 330 366 330 366 330 338 c 256,0,1
EndSplineSet
EndChar

StartChar: ellipsis
Encoding: 8230 8230 214
Width: 510
GlyphClass: 2
Flags: W
LayerCount: 2
Fore
SplineSet
292 300 m 1,0,-1
 217 300 l 1,1,-1
 217 375 l 1,2,-1
 292 375 l 1,3,-1
 292 300 l 1,0,-1
EndSplineSet
EndChar

StartChar: perthousand
Encoding: 8240 8240 215
Width: 510
GlyphClass: 2
Flags: W
LayerCount: 2
Fore
SplineSet
292 300 m 1,0,-1
 217 300 l 1,1,-1
 217 375 l 1,2,-1
 292 375 l 1,3,-1
 292 300 l 1,0,-1
EndSplineSet
EndChar

StartChar: guilsinglleft
Encoding: 8249 8249 216
Width: 510
GlyphClass: 2
Flags: W
LayerCount: 2
Fore
SplineSet
292 300 m 1,0,-1
 217 300 l 1,1,-1
 217 375 l 1,2,-1
 292 375 l 1,3,-1
 292 300 l 1,0,-1
EndSplineSet
EndChar

StartChar: guilsinglright
Encoding: 8250 8250 217
Width: 510
GlyphClass: 2
Flags: W
LayerCount: 2
Fore
SplineSet
292 300 m 1,0,-1
 217 300 l 1,1,-1
 217 375 l 1,2,-1
 292 375 l 1,3,-1
 292 300 l 1,0,-1
EndSplineSet
EndChar

StartChar: trademark
Encoding: 8482 8482 218
Width: 510
GlyphClass: 2
Flags: W
LayerCount: 2
Fore
SplineSet
292 300 m 1,0,-1
 217 300 l 1,1,-1
 217 375 l 1,2,-1
 292 375 l 1,3,-1
 292 300 l 1,0,-1
EndSplineSet
EndChar

StartChar: glyph4
Encoding: 65539 -1 219
Width: 510
GlyphClass: 2
Flags: W
LayerCount: 2
Fore
SplineSet
292 300 m 1,0,-1
 217 300 l 1,1,-1
 217 375 l 1,2,-1
 292 375 l 1,3,-1
 292 300 l 1,0,-1
EndSplineSet
EndChar

StartChar: glyph5
Encoding: 65540 -1 220
Width: 510
GlyphClass: 2
Flags: W
LayerCount: 2
Fore
SplineSet
292 300 m 1,0,-1
 217 300 l 1,1,-1
 217 375 l 1,2,-1
 292 375 l 1,3,-1
 292 300 l 1,0,-1
EndSplineSet
EndChar

StartChar: glyph6
Encoding: 65541 -1 221
Width: 510
GlyphClass: 2
Flags: W
LayerCount: 2
Fore
SplineSet
292 300 m 1,0,-1
 217 300 l 1,1,-1
 217 375 l 1,2,-1
 292 375 l 1,3,-1
 292 300 l 1,0,-1
EndSplineSet
EndChar

StartChar: glyph7
Encoding: 65542 -1 222
Width: 510
GlyphClass: 2
Flags: W
LayerCount: 2
Fore
SplineSet
292 300 m 1,0,-1
 217 300 l 1,1,-1
 217 375 l 1,2,-1
 292 375 l 1,3,-1
 292 300 l 1,0,-1
EndSplineSet
EndChar

StartChar: glyph8
Encoding: 65543 -1 223
Width: 510
GlyphClass: 2
Flags: W
LayerCount: 2
Fore
SplineSet
292 300 m 1,0,-1
 217 300 l 1,1,-1
 217 375 l 1,2,-1
 292 375 l 1,3,-1
 292 300 l 1,0,-1
EndSplineSet
EndChar

StartChar: glyph9
Encoding: 65544 -1 224
Width: 510
GlyphClass: 2
Flags: W
LayerCount: 2
Fore
SplineSet
292 300 m 1,0,-1
 217 300 l 1,1,-1
 217 375 l 1,2,-1
 292 375 l 1,3,-1
 292 300 l 1,0,-1
EndSplineSet
EndChar

StartChar: glyph10
Encoding: 65545 -1 225
Width: 510
GlyphClass: 2
Flags: W
LayerCount: 2
Fore
SplineSet
292 300 m 1,0,-1
 217 300 l 1,1,-1
 217 375 l 1,2,-1
 292 375 l 1,3,-1
 292 300 l 1,0,-1
EndSplineSet
EndChar

StartChar: glyph11
Encoding: 65546 -1 226
Width: 510
GlyphClass: 2
Flags: W
LayerCount: 2
Fore
SplineSet
292 300 m 1,0,-1
 217 300 l 1,1,-1
 217 375 l 1,2,-1
 292 375 l 1,3,-1
 292 300 l 1,0,-1
EndSplineSet
EndChar

StartChar: glyph12
Encoding: 65547 -1 227
Width: 510
GlyphClass: 2
Flags: W
LayerCount: 2
Fore
SplineSet
292 300 m 1,0,-1
 217 300 l 1,1,-1
 217 375 l 1,2,-1
 292 375 l 1,3,-1
 292 300 l 1,0,-1
EndSplineSet
EndChar

StartChar: glyph13
Encoding: 65548 -1 228
Width: 510
GlyphClass: 2
Flags: W
LayerCount: 2
Fore
SplineSet
292 300 m 1,0,-1
 217 300 l 1,1,-1
 217 375 l 1,2,-1
 292 375 l 1,3,-1
 292 300 l 1,0,-1
EndSplineSet
EndChar

StartChar: glyph14
Encoding: 65549 -1 229
Width: 510
GlyphClass: 2
Flags: W
LayerCount: 2
Fore
SplineSet
292 300 m 1,0,-1
 217 300 l 1,1,-1
 217 375 l 1,2,-1
 292 375 l 1,3,-1
 292 300 l 1,0,-1
EndSplineSet
EndChar

StartChar: glyph15
Encoding: 65550 -1 230
Width: 510
GlyphClass: 2
Flags: W
LayerCount: 2
Fore
SplineSet
292 300 m 1,0,-1
 217 300 l 1,1,-1
 217 375 l 1,2,-1
 292 375 l 1,3,-1
 292 300 l 1,0,-1
EndSplineSet
EndChar

StartChar: glyph16
Encoding: 65551 -1 231
Width: 510
GlyphClass: 2
Flags: W
LayerCount: 2
Fore
SplineSet
292 300 m 1,0,-1
 217 300 l 1,1,-1
 217 375 l 1,2,-1
 292 375 l 1,3,-1
 292 300 l 1,0,-1
EndSplineSet
EndChar

StartChar: glyph17
Encoding: 65552 -1 232
Width: 510
GlyphClass: 2
Flags: W
LayerCount: 2
Fore
SplineSet
292 300 m 1,0,-1
 217 300 l 1,1,-1
 217 375 l 1,2,-1
 292 375 l 1,3,-1
 292 300 l 1,0,-1
EndSplineSet
EndChar

StartChar: glyph18
Encoding: 65553 -1 233
Width: 510
GlyphClass: 2
Flags: W
LayerCount: 2
Fore
SplineSet
292 300 m 1,0,-1
 217 300 l 1,1,-1
 217 375 l 1,2,-1
 292 375 l 1,3,-1
 292 300 l 1,0,-1
EndSplineSet
EndChar

StartChar: glyph19
Encoding: 65554 -1 234
Width: 510
GlyphClass: 2
Flags: W
LayerCount: 2
Fore
SplineSet
292 300 m 1,0,-1
 217 300 l 1,1,-1
 217 375 l 1,2,-1
 292 375 l 1,3,-1
 292 300 l 1,0,-1
EndSplineSet
EndChar

StartChar: glyph20
Encoding: 65555 -1 235
Width: 510
GlyphClass: 2
Flags: W
LayerCount: 2
Fore
SplineSet
292 300 m 1,0,-1
 217 300 l 1,1,-1
 217 375 l 1,2,-1
 292 375 l 1,3,-1
 292 300 l 1,0,-1
EndSplineSet
EndChar

StartChar: glyph21
Encoding: 65556 -1 236
Width: 510
GlyphClass: 2
Flags: W
LayerCount: 2
Fore
SplineSet
292 300 m 1,0,-1
 217 300 l 1,1,-1
 217 375 l 1,2,-1
 292 375 l 1,3,-1
 292 300 l 1,0,-1
EndSplineSet
EndChar

StartChar: glyph22
Encoding: 65557 -1 237
Width: 510
GlyphClass: 2
Flags: W
LayerCount: 2
Fore
SplineSet
292 300 m 1,0,-1
 217 300 l 1,1,-1
 217 375 l 1,2,-1
 292 375 l 1,3,-1
 292 300 l 1,0,-1
EndSplineSet
EndChar

StartChar: glyph23
Encoding: 65558 -1 238
Width: 510
GlyphClass: 2
Flags: W
LayerCount: 2
Fore
SplineSet
292 300 m 1,0,-1
 217 300 l 1,1,-1
 217 375 l 1,2,-1
 292 375 l 1,3,-1
 292 300 l 1,0,-1
EndSplineSet
EndChar

StartChar: glyph24
Encoding: 65559 -1 239
Width: 510
GlyphClass: 2
Flags: W
LayerCount: 2
Fore
SplineSet
292 300 m 1,0,-1
 217 300 l 1,1,-1
 217 375 l 1,2,-1
 292 375 l 1,3,-1
 292 300 l 1,0,-1
EndSplineSet
EndChar

StartChar: glyph25
Encoding: 65560 -1 240
Width: 510
GlyphClass: 2
Flags: W
LayerCount: 2
Fore
SplineSet
292 300 m 1,0,-1
 217 300 l 1,1,-1
 217 375 l 1,2,-1
 292 375 l 1,3,-1
 292 300 l 1,0,-1
EndSplineSet
EndChar

StartChar: glyph26
Encoding: 65561 -1 241
Width: 510
GlyphClass: 2
Flags: W
LayerCount: 2
Fore
SplineSet
292 300 m 1,0,-1
 217 300 l 1,1,-1
 217 375 l 1,2,-1
 292 375 l 1,3,-1
 292 300 l 1,0,-1
EndSplineSet
EndChar

StartChar: glyph27
Encoding: 65562 -1 242
Width: 510
GlyphClass: 2
Flags: W
LayerCount: 2
Fore
SplineSet
292 300 m 1,0,-1
 217 300 l 1,1,-1
 217 375 l 1,2,-1
 292 375 l 1,3,-1
 292 300 l 1,0,-1
EndSplineSet
EndChar

StartChar: glyph28
Encoding: 65563 -1 243
Width: 510
GlyphClass: 2
Flags: W
LayerCount: 2
Fore
SplineSet
292 300 m 1,0,-1
 217 300 l 1,1,-1
 217 375 l 1,2,-1
 292 375 l 1,3,-1
 292 300 l 1,0,-1
EndSplineSet
EndChar

StartChar: glyph29
Encoding: 65564 -1 244
Width: 510
GlyphClass: 2
Flags: W
LayerCount: 2
Fore
SplineSet
292 300 m 1,0,-1
 217 300 l 1,1,-1
 217 375 l 1,2,-1
 292 375 l 1,3,-1
 292 300 l 1,0,-1
EndSplineSet
EndChar

StartChar: glyph30
Encoding: 65565 -1 245
Width: 510
GlyphClass: 2
Flags: W
LayerCount: 2
Fore
SplineSet
292 300 m 1,0,-1
 217 300 l 1,1,-1
 217 375 l 1,2,-1
 292 375 l 1,3,-1
 292 300 l 1,0,-1
EndSplineSet
EndChar

StartChar: glyph31
Encoding: 65566 -1 246
Width: 510
GlyphClass: 2
Flags: W
LayerCount: 2
Fore
SplineSet
292 300 m 1,0,-1
 217 300 l 1,1,-1
 217 375 l 1,2,-1
 292 375 l 1,3,-1
 292 300 l 1,0,-1
EndSplineSet
EndChar

StartChar: glyph32
Encoding: 65567 -1 247
Width: 510
GlyphClass: 2
Flags: W
LayerCount: 2
Fore
SplineSet
292 300 m 1,0,-1
 217 300 l 1,1,-1
 217 375 l 1,2,-1
 292 375 l 1,3,-1
 292 300 l 1,0,-1
EndSplineSet
EndChar

StartChar: glyph33
Encoding: 65568 -1 248
Width: 510
GlyphClass: 2
Flags: W
LayerCount: 2
Fore
SplineSet
292 300 m 1,0,-1
 217 300 l 1,1,-1
 217 375 l 1,2,-1
 292 375 l 1,3,-1
 292 300 l 1,0,-1
EndSplineSet
EndChar

StartChar: glyph34
Encoding: 65569 -1 249
Width: 510
GlyphClass: 2
Flags: W
LayerCount: 2
Fore
SplineSet
292 300 m 1,0,-1
 217 300 l 1,1,-1
 217 375 l 1,2,-1
 292 375 l 1,3,-1
 292 300 l 1,0,-1
EndSplineSet
EndChar

StartChar: glyph35
Encoding: 65570 -1 250
Width: 510
GlyphClass: 2
Flags: W
LayerCount: 2
Fore
SplineSet
292 300 m 1,0,-1
 217 300 l 1,1,-1
 217 375 l 1,2,-1
 292 375 l 1,3,-1
 292 300 l 1,0,-1
EndSplineSet
EndChar

StartChar: glyph130
Encoding: 65571 -1 251
Width: 510
GlyphClass: 2
Flags: W
LayerCount: 2
Fore
SplineSet
292 300 m 1,0,-1
 217 300 l 1,1,-1
 217 375 l 1,2,-1
 292 375 l 1,3,-1
 292 300 l 1,0,-1
EndSplineSet
EndChar

StartChar: glyph131
Encoding: 65572 -1 252
Width: 510
GlyphClass: 2
Flags: W
LayerCount: 2
Fore
SplineSet
292 300 m 1,0,-1
 217 300 l 1,1,-1
 217 375 l 1,2,-1
 292 375 l 1,3,-1
 292 300 l 1,0,-1
EndSplineSet
EndChar

StartChar: glyph132
Encoding: 65573 -1 253
Width: 510
GlyphClass: 2
Flags: W
LayerCount: 2
Fore
SplineSet
292 300 m 1,0,-1
 217 300 l 1,1,-1
 217 375 l 1,2,-1
 292 375 l 1,3,-1
 292 300 l 1,0,-1
EndSplineSet
EndChar

StartChar: glyph144
Encoding: 65574 -1 254
Width: 510
GlyphClass: 2
Flags: W
LayerCount: 2
Fore
SplineSet
292 300 m 1,0,-1
 217 300 l 1,1,-1
 217 375 l 1,2,-1
 292 375 l 1,3,-1
 292 300 l 1,0,-1
EndSplineSet
EndChar

StartChar: glyph145
Encoding: 65575 -1 255
Width: 510
GlyphClass: 2
Flags: W
LayerCount: 2
Fore
SplineSet
292 300 m 1,0,-1
 217 300 l 1,1,-1
 217 375 l 1,2,-1
 292 375 l 1,3,-1
 292 300 l 1,0,-1
EndSplineSet
EndChar

StartChar: glyph146
Encoding: 65576 -1 256
Width: 510
GlyphClass: 2
Flags: W
LayerCount: 2
Fore
SplineSet
292 300 m 1,0,-1
 217 300 l 1,1,-1
 217 375 l 1,2,-1
 292 375 l 1,3,-1
 292 300 l 1,0,-1
EndSplineSet
EndChar

StartChar: glyph147
Encoding: 65577 -1 257
Width: 510
GlyphClass: 2
Flags: W
LayerCount: 2
Fore
SplineSet
292 300 m 1,0,-1
 217 300 l 1,1,-1
 217 375 l 1,2,-1
 292 375 l 1,3,-1
 292 300 l 1,0,-1
EndSplineSet
EndChar

StartChar: glyph160
Encoding: 65578 -1 258
Width: 510
GlyphClass: 2
Flags: W
LayerCount: 2
Fore
SplineSet
292 300 m 1,0,-1
 217 300 l 1,1,-1
 217 375 l 1,2,-1
 292 375 l 1,3,-1
 292 300 l 1,0,-1
EndSplineSet
EndChar

StartChar: glyph161
Encoding: 65579 -1 259
Width: 510
GlyphClass: 2
Flags: W
LayerCount: 2
Fore
SplineSet
292 300 m 1,0,-1
 217 300 l 1,1,-1
 217 375 l 1,2,-1
 292 375 l 1,3,-1
 292 300 l 1,0,-1
EndSplineSet
EndChar
